/* XPM */
static char *sc1[] = {
/* columns rows colors chars-per-pixel */
"64 64 196 2 ",
"   c #1D0C0C",
".  c #1B1C0B",
"X  c #1A1414",
"o  c #1C1B1B",
"O  c #210F0C",
"+  c #25110D",
"@  c #2B140D",
"#  c #32170E",
"$  c #34190E",
"%  c #3B1C0E",
"&  c #2D1413",
"*  c #2D1D15",
"=  c #251F1C",
"-  c #2B1E18",
";  c #271C16",
":  c #321615",
">  c #351913",
",  c #3B1D13",
"<  c #331A1A",
"1  c #3A1C19",
"2  c #072C02",
"3  c #1F2806",
"4  c #152D0A",
"5  c #1C2E0D",
"6  c #023700",
"7  c #0B3404",
"8  c #013C00",
"9  c #0B3A04",
"0  c #0F3508",
"q  c #123506",
"w  c #153B05",
"e  c #1A3D07",
"r  c #143209",
"t  c #1C350C",
"y  c #1F3C08",
"u  c #173A0A",
"i  c #292D0C",
"p  c #352C0B",
"a  c #3D2B0D",
"s  c #32230F",
"d  c #233308",
"f  c #2B3309",
"g  c #233D09",
"h  c #2B3C0A",
"j  c #35330C",
"k  c #333A0C",
"l  c #3B350E",
"z  c #252312",
"x  c #2C2014",
"c  c #242910",
"v  c #26211E",
"b  c #2D221C",
"n  c #352116",
"m  c #3D2115",
"M  c #362810",
"N  c #34251D",
"B  c #3C251A",
"V  c #252424",
"C  c #2B2523",
"Z  c #2E2825",
"A  c #2C2C2B",
"S  c #332424",
"D  c #322925",
"F  c #3B2C23",
"G  c #342B2A",
"H  c #3A2D2D",
"J  c #3B322D",
"K  c #36302D",
"L  c #2F3232",
"P  c #333333",
"I  c #3B3433",
"U  c #373939",
"Y  c #3D3B3B",
"T  c #431F0D",
"R  c #401F12",
"E  c #401F18",
"W  c #44210E",
"Q  c #4A230E",
"!  c #44290E",
"~  c #43330F",
"^  c #432214",
"/  c #4C2511",
"(  c #452D12",
")  c #4E2915",
"_  c #43231A",
"`  c #4A2519",
"'  c #44291A",
"]  c #4C2A1B",
"[  c #502712",
"{  c #542B14",
"}  c #592E16",
"|  c #542D1A",
" . c #433710",
".. c #413C11",
"X. c #4B3B14",
"o. c #4C3313",
"O. c #553416",
"+. c #5C3117",
"@. c #593917",
"#. c #57311B",
"$. c #5D3319",
"%. c #573E18",
"&. c #62361A",
"*. c #66391C",
"=. c #6A3C1E",
"-. c #442E21",
";. c #4C2F20",
":. c #4D3222",
">. c #44342A",
",. c #4F3B2F",
"<. c #443026",
"1. c #533624",
"2. c #563826",
"3. c #5D3A23",
"4. c #55392A",
"5. c #413333",
"6. c #423934",
"7. c #4C3C33",
"8. c #433C3C",
"9. c #483F3F",
"0. c #513B30",
"q. c #653C22",
"w. c #6C3E20",
"e. c #014300",
"r. c #0A4503",
"t. c #014D00",
"y. c #0D4B04",
"u. c #1B4406",
"i. c #144A04",
"p. c #1B4907",
"a. c #184407",
"s. c #015300",
"d. c #0B5303",
"f. c #005B00",
"g. c #0A5F02",
"h. c #135505",
"j. c #185407",
"k. c #214107",
"l. c #2D420B",
"z. c #2B490C",
"x. c #274B0B",
"c. c #34440D",
"v. c #38440F",
"b. c #344B0E",
"n. c #245C0A",
"m. c #23540A",
"M. c #3B4412",
"N. c #3E5011",
"B. c #006300",
"V. c #006A00",
"C. c #0A6903",
"Z. c #116005",
"A. c #007400",
"S. c #206609",
"D. c #444313",
"F. c #4F4116",
"G. c #424914",
"H. c #4B4816",
"J. c #6F401F",
"K. c #70401F",
"L. c #44413F",
"P. c #49413D",
"I. c #524037",
"U. c #6E4021",
"Y. c #6F4A22",
"T. c #734322",
"R. c #774926",
"E. c #7A4926",
"W. c #7C4C28",
"Q. c #3E3F41",
"!. c #3F4141",
"~. c #444343",
"^. c #4A4444",
"/. c #464748",
"(. c #474949",
"). c #4C4C4C",
"_. c #4D4947",
"`. c #524E4D",
"'. c #4F5151",
"]. c #535454",
"[. c #5C5755",
"{. c #565758",
"}. c #57595B",
"|. c #5A5B5B",
" X c #635C59",
".X c #5B5E60",
"XX c #5C6060",
"oX c #626363",
"OX c #616868",
"+X c #6B6B6B",
"@X c #737373",
"#X c #814F2A",
"$X c #83512B",
"%X c #8A562E",
"&X c #8D5931",
"*X c #915C33",
/* pixels */
"=.*.w.U.*.+.*.&.} { +.*.=.=.=.=.=.&.&.*.=.=.w.w.T.w.w.w.&.&.w.w.=.=.=.=.=.K.w.=.w.w.w.w.=.=.*.&.+.&.=.=.w.=.w.w.=.=.&.*.=.*.*.=.",
"U.T.T.T.*.&.*.*.+.} &.w.=.w.=.=.=.&.&.*.w.w.w.w.w.T.w.=.&.*.w.w.=.&.=.=.w.K.w.w.w.w.=.w.=.=.&.=.*.=.w.w.w.w.w.K.=.*.&.*.K.&.*.K.",
"Q Q Q Q Q [ / Q [ [ T T Q Q Q Q T [ T T Q Q Q Q Q Q Q T T Q Q T T T T Q Q Q Q Q T Q T Q T T T Q Q T [ [ T Q [ Q Q W T Q Q Q W Q ",
"} { { / [ [ Q Q [ T Q Q Q [ [ [ { [ [ Q Q { { [ [ Q [ [ [ Q [ [ [ [ [ { { [ [ [ { Q [ Q [ [ { [ Q T [ [ / Q [ [ Q Q [ } { [ Q [ ",
"$.} { } +.} } { +.+.} } [ } &.+.+.$.$.} } +.+.} [ [ { +.$.+.} +.{ } +.+.&.} { } +.+.{ { } +.+.} } } } +.+.+.+.{ [ } &.+.+.+.{ +.",
"&.} } } } { { } +.+.+.+.{ { { &.+.+.+.} +.+.+.} } &.+.+.+.+.$.} +.+.} $.&.&.} { { } +.+.+.$.+.} +.{ { } &.+.} [ { +.} &.&.+.} +.",
"&.+.{ } } } } } $.$.+.+.} [ } } } +.+.+.+.+.} { +.+.&.+.+.+.+.+.+.+.} +.&.&.} { } } } $.$.&.&.&.+.} [ } &.&.} [ } &.+.&.&.+.} +.",
", > $ > > $ $ > > % > % $ $ $ % % > % > > % > : % % $ % T > % : > R $ $ $ % $ $ > > % % > % , > T $ % > T > > $ $ $ , $ , $ , $ ",
": : : : : : : : : : : : : : : : : : : : : : : : : : : : & : : : # : : : : & : : : : : : : & & : : : : : : : : : > : : : : : : : ",
"H N Y _.9.H S I 9.9.H S 5.^.^.H N I ^.9.H S I ^.^.H S H 9.9.I S H 9.^.H S H 8.^.I S G 8.^.I S H 9.^.8.S G 8.^.8.S S 8._.8.S S 8.",
"8.<.).|.|.8.H `. X].9.H /.|.|.~.5._.|.{.^.5.^.|.{.^.5.9.].].^.I 9.|.|._.I 8.{.|.`.5.5.].].`.5.6.].|.).5.5.].|.`.5.5.`.{.'.5.5.`.",
"H S Y /.~.H S Y ^.~.H S Y ~.^.I D Y ~.~.I S I ^.~.I G I ~.~.I H I ~.~.I F K ~.~.Y H H ~.~.Y H H ~./.8.G G 8.~.Y H G 8./.8.H G 8.",
"S < S G G b < D G G Z < S G G S < Z G G D < Z G G S N C G G Z - S G G S - S A G S - N G G Z < C G G D b < G G D S - G G G < N Z ",
"1 1 1 B m , 1 m m , 1 1 1 1 1 , , 1 m m 1 m 1 m 1 1 1 R m 1 1 ^ 1 > , , 1 1 , 1 1 E 1 , m m m 1 1 , m 1 , 1 B m 1 1 m m 1 1 1 1 ",
"$.&.$.&.&.&.*.$.$.&.$.&.$.$.&.&.&.&.&.$.&.*.*.&.&.&.&.&.&.&.&.&.*.&.&.&.&.&.&.$.&.&.&.&.$.&.*.&.$.*.*.&.&.$.*.&.$.$.$.*.&.$.&.&.",
"T.*.^ 1 1 ^ B ^ ^ m ^ ^ m ^ , ^ E B ^ ^ m ^ ^ ^ ] *.=.=.=.=.K.T.w.T.=.*.*.w.&.} ^ E ^ 1 B E ^ E ^ 1 _ ^ , E B ^ m ^ m m ^ ^ #.T.",
"q.U.1.> : : : : : & & & & + & : < : < 1 : 1 | $.+.q.=.&.$.*.&.} +.*.*.$.&.=.=.$.+.| E : : < : < < : : : : : & & & & : : : ] w.w.",
"| &.w.$.E < : : & : & O & & : : 1 1 E | $.&.*.q.$.&.*.&.$.$.*.=.=.*.&.+.$.&.&.$.&.*.q.&.#.` 1 : & & : : & & & & : : : : ] w.*.| ",
"m [ &.=.$.E < < & : : & & & : 1 _ | q.*.&.&.*.&.+.+.&.} } } &.&.&.$.+.+.+.$.$.+.$.w.*.&.&.*.| ` 1 : : & : & & : : < 1 | =.&.| E ",
"< , ) +.q.q._ : : : : : & : 1 E $.*.*.&.$.$.&.&.{ ] ] 1.1.4.4.4.4.4.4.4.:.] ] ) $.&.&.} +.+.&.$.] 1 : < : & : : < E | w.&.{ E : ",
"| ` } &.*.w.&.1 < : : : < 1 { &.*.w.&.q.&.$.$.$.-.J 6.^.`.[. X X X X[.`.^.8.J <.| $.$.&.$.} +.=.&.| E < < : : : E | w.w.&.+.[ | ",
"w.&.&.w.w.T.w.] > : < < 1 | &.*.&.} } $.$.{ [ ` F U /.]. XOX@X@X@X@X+XoX{.).Y F _ { } } } [ { &.*.q.#.E < : : < E =.w.w.w.*.$.w.",
"3.` +.*.w.w.*.| 1 : < 1 | &.&.&.} | 0.0.7.>._ E x A 8.].XX+X@X@X@X@X+XoX].~.G V n _ -.7.I.7.:.O.&.&.+.#.E : : 1 ` w.=.w.=.&.` | ",
"> : R } *.&.$.$._ 1 E ] &.$.} { ` 5._.'.).^.H N * v A 8.].XX+X@X@X+XoX].~.L v * N G 8.).`.).7.] { } +.&.$.E 1 E w.=.&.+.} T > : ",
"& + : R } } +.w.w.&.$.&.&.&.&.{ ] I 9.).|.{._.I N x = Z !.'.OX@X@X+X|.~.A = - N K ~.{.|.).~.U ' } $.&.&.&.&.&.=.w.w.=.} T & & & ",
"& : : : / { &.w.E.E.w.=.&.&.&.} ` D P ~.`.|.]./.Y D x v U ].oX+X+XoX].!.C = N I ~.`.|.{.L.U A ' } &.&.&.w.w.w.#X#Xw.&.| R & & & ",
": : : : > T &.w.w.#XT.w.*.&.&.[ , = V L Q.).].{.).Y Z V !.'.'.XXoX].].(.A C I (.{.{.'.!.P A v x [ +.&.&.=.w.#Xw.w.*.{ R : : : : ",
": & & : : T [ *.=.w.E.K.=.&.[ Q + X o V A Y ).{.{.).Y U /.).(.'.].^.~.).Y P (.{.|.).Y P V o X + R { &.&.*.w.w.=.*.+.T # : & : : ",
"E : & & : : R { +.=.w.K.K.w.*.} m > ; v V A I /.].]./.~.).].'.!.!.'.].'.~.~.'.].).Y A V V ; $ % [ *.=.=.&.&.&.+.} T : : : & : 1 ",
"3.E : & & : > [ } } =.=.=.#X=.=.*.O./ m n N v L ~.(.~.~.'.{.XX}.'.}.|.]./.~.).~.P V b B m ^ { =.=.w.w.w.=.} } } { R & : : : 1 | ",
"T.$.E : & & $ } +.} } &.*.&.&.&.J.J.&.{ ) ) M v A 8.~.~.'.{.|.XXOXXX{.'.~.~.~.P V n / [ [ +.=.w.=.+.*.&.&.{ { } } R & & : E | w.",
"E.w.$.E < > R } &.&.} } [ T % T +.=.J.*.*.*.$.' b L Y ~.].XX|.|.}.XXXX{./.Y P b B #.*.*.*.J.w.&.R % T [ } } $.&.} / , : E &.w.w.",
"W.K.=.{ / Q } &.&.&.&.+.W @   + $ +.=.K.T.R.T.U.2.:.>.Y '.{.'.!.!.).{.].P.J :.#.q.T.R.R.T.=.+.^ +   @ m { $.&.&.$.+.Q / +.J.T.T.",
"w.w.*.&.&.} } &.*.*.$.{ % +     + , { $.$.$.*.U.T.U.q.4.L.).).Y U /.'.^.,.3.Y.R.T.*.$.+.+.} ^ @     O $ ) +.*.&.&.+.+.*.J.T.T.J.",
"&.&.&.&.w.*.&.} &.&.+./ $ +     + @ , / m , ^ / $.U.Y.3.6.L.~.U L !.!.6.2.J.U.$.{ ^ R R ^ ^ # +       @ / +.&.&.&.&.*.K.T.K.=.&.",
"&.} } *.T.K.=.&.O.+.| W +         + $ R ^ T : @ # B ) ] <.>.>.F N >.6.>.' ] ^ 1 & @ % / ^ > +         + % [ { { +.*.K.K.J.=.*.+.",
"$.} } &.=.w.T.w.*.=.*.+./ m $ m , : # R ^ % # # $ @ @ @ $ | &.*.&.*.#.m & + @ $ # @ > W R > # % m ! ` ` O.+.} +.=.T.K.=.=.*.&.} ",
"} { } &.*.*.=.T.T.W.R.T.=.&.&.*.&.O.` , # + + # % $ @   + m @.T.T.w.^ @   @ % s $ + + @ , ` #.*.=.=.T.T.U.*.&.=.T.K.*.$.&.&.} { ",
"` { { &.&.&.*.=.=.*.&.+.{ } } +.*.=.*./ # @ @ + + @ @ +   1 q.E.W.w.' O   @ @ + + @ # @ ^ &.*.*.&.+.&.$.} { +.&.=.*.&.+.&.} } { ",
"1 +.[ [ } &.*.&.$.} { { W $ % W { +.&.$.O.[ ) , @ + + + > ] W.*X*X$X$.> + + + @ > / { { } &.$.{ Q % $ % ^ [ } &.&.&.&.&.{ ) } ] ",
"^ | % , / / } } { [ Q W @ O O @ T / +.J.J.*.} ) _ ^ ^ / / $.W.&X&X$Xw.` ^ / ^ E ` } &.=.J.&.[ W # O O + T [ [ { } } { / R , [ ] ",
"1 ) & : , / { } } [ Q % +       @ % [ &.*.*.=.w.=.&.&.&.} +.T.$X$XR.&.{ $.*.&.q.w.=.*.*.*.{ T @ O     + $ Q { } } { [ , : : R ` ",
"1 , : : : ^ &.=.*.&.[ Q % @ + + O @ % ) +.=.R.$XE.=.$.} [ +.w.W.W.T.&.[ { +.=.R.#XW.U.&.{ T @ O O + @ $ T Q +.=.=.&.{ : : & > , ",
": & : : & E &.*.*.+.[ Q W W W W $ # % | &.T.T.E.T.&.` T { &.R.$X$XW.*.} ^ ^ } T.R.R.T.*.} ^ # # T T T T Q Q } &.*.&.` : : : & : ",
": & < & & E +.&.} [ { [ Q Q Q { { } } &.*.=.=.&.{ R $ R / $.T.R.W.T.*.) ^ % % ) &.=.=.*.&.+.} { [ Q Q Q [ [ [ } &.&.` : < : : & ",
": : : & & E } } [ } =.=.} Q $ $ , / / { } | ) E & # , $ @ $ ^ Q ` ^ $ @ @ % # & , ` { } { [ / W % $ T { =.w.&.[ { $.E < : : : & ",
"< < : : : E [ [ } *.=.=.&./ O   O @ # $ $ # @ O O : R T @             & , / : O O @ # $ > # @ O   O % +.w.w.=.} [ [ R 1 : : : : ",
"< : : : : 1 / } &.*.=.T.=./ +               O @ O O > , & O           + , $ @ O + +               O T =.w.=.&.=.+.[ 1 < : : & & ",
"< < < < R T { &.&.&.*.w.w.$.: O             $ % $ + + + O     O     O O O + O # % $ +             @ ` J.T.w.&.*.=.+.T R : : : > ",
"E | 1 R T } &.&.&.&.=.w.W.w.{ &           + % W Q % @ + + @ + + + + + + + + % Q Q % @           + / w.T.w.=.&.&.*.&.+.Q R E ` ] ",
";.&.| $.} &.&.} } &.&.=.w.w.=.[ @         + $ Q [ [ Q Q Q [ [ [ [ Q [ Q [ Q Q [ Q T @         @ ^ *.T.T.*.&.*.&.+.=.=.+.} #.| | ",
"` *.=.w.&.&.=.w.w.&.&.&.&.{ } &.| m @ +   + $ Q [ } } } { { [ } { { { [ } } } { Q % +     + n ) $.+.} } &.&.&.} } +.&.+.w.w.w.| ",
"w.&.w.=.w.$.&.&.&.&.&.} } &.w.#XW.T.&., + + # / &.K.K.K.w.w.=.K.K.K.=.=.T.R.T.=.{ % + + > | T.W.W.T.&.} } &.&.*.=.*.&.&.w.*.*.*.",
"&.&.&.&.=.&.$.$.$.+.$.$.&.=.*.*.T.E.R.$.` ` #.*.R.$X$X$X$X$X$X%X&X$X$X$X$X$X$XE.=.$.] ^ | T.W.T.=.=.=.&.&.} &.+.&.$.=.=.*.&.&.&.",
"w.&.&.&.&.&.=.=.=.*.=.=.*.&.&.&.U.E.E.R.T.T.K.J.w.E.#X#X$X$X$X%X&X$X$X$XW.W.W.T.J.J.T.T.R.E.E.T.*.&.&.=.=.=.*.=.=.*.&.$.&.&.&.*.",
"&.w.&.$.} [ +.&.&.&.&.&.$.} } } *.=.T.T.T.Y.*.J.K.=.&.w.#X#XE.$X%XW.W.#XT.*.&.=.J.*.J.T.T.T.J.*.$.{ { +.&.&.&.&.&.&.} { $.&.&.*.",
"$.&.&.$./ $ Q / } } &.+.{ [ { $.&.*.*.*.&.&.K.W.w.O.O.J.E.=.&.E.W.*.*.R.T.+.O.*.R.R.*.+.*.=.*.&.$.} ) { } &.} } [ Q R R +.&.&.+.",
"&.&.{ } ) : > / +.&.&.} } +.+.[ O.&.*.+.&.*.*.*.R.T.&.J.R.=.@.K.R.&.*.K.T.*.=.E.=.*.=.&.} &.&.+./ } $.+.} &.=.$.[ R : R } { } } ",
"&.w.R.w.{ < & > [ +.$.+.w.T.} R Q ) { } &.*.&.$.*.=.J.J.R.E.R.R.W.R.R.J.J.K.J.*.&.$.*.&.} { { ! m ) U.U.*.&.+.[ R & : R $.&.$.} ",
"+.&.*.T.$.: & < : T +.&.*.w.w.$.m l k  .O.$.} +.@.X.+.=.K.*.*.*.=.&.F.N.G.@.+.$.$.O.} $.O.~ k g M.U.T.*.$.+. .s & : < m / { } } ",
"..#.o...' b & ; 5 t l.l +.O.D.G.z.C.B.d.l.~ ) O.c.m.H.*.&.@.*.*.=.@.N.S.n.D.X...v.k j l j i.s.y.N.U.F.c.c.h y 5 : * t a.c.v.X.&.",
"y.f y y.p.u r q e.f.f.r.g g 9 6 8 f.f.f.d.p.k.p.C.C.n.z.l.l.l.c.z.x.Z.A.V.d.j.h.s.s.s.i.d.f.f.t.p.z.h.V.V.t.0 ; < c y.B.B.V.h.z.",
"e.e.e.e.e.e.t.e.8 e.e.8 8 8 0 3 2 e.y.g c t r.s.B.A.V.B.y.g j f w e.t.f.B.B.V.V.f.t.t.s.s.t.t.t.e.t.f.B.B.t.7 q 7 7 s.B.V.B.f.t.",
"8 q a ( j 8 8 8 8 7 . . 2 8 w i 7 8 w ! ` : z 9 s.f.f.f.a.p / / Q a p w t.f.B.B.f.t.t.s.r.d p d d p t t.t.e.4 * x r s.f.f.e g e."
};
