/* XPM */
static char *sc2[] = {
/* columns rows colors chars-per-pixel */
"64 64 199 2 ",
"   c #060E06",
".  c #130F0D",
"X  c #071105",
"o  c #0E1107",
"O  c #0A1F06",
"+  c #0A1409",
"@  c #0C1C0A",
"#  c #111107",
"$  c #151C06",
"%  c #16110E",
"&  c #1A120C",
"*  c #161F09",
"=  c #1C1C0B",
"-  c #151414",
";  c #1D1512",
":  c #1A1A17",
">  c #1B1A1A",
",  c #230E0D",
"<  c #25130D",
"1  c #2C140D",
"2  c #241B0D",
"3  c #2C1B0D",
"4  c #32160E",
"5  c #351B0D",
"6  c #3B1D0D",
"7  c #241513",
"8  c #2C1412",
"9  c #251A12",
"0  c #2C1B14",
"q  c #241B1B",
"w  c #2B1B1A",
"e  c #321613",
"r  c #351A13",
"t  c #3B1C12",
"y  c #341A19",
"u  c #3D1D1A",
"i  c #022501",
"p  c #0D2604",
"a  c #032D01",
"s  c #0D2C04",
"d  c #132505",
"f  c #1A2406",
"g  c #142C06",
"h  c #1C2C06",
"j  c #142409",
"k  c #1C240B",
"l  c #152B0A",
"z  c #1C2B0A",
"x  c #023301",
"c  c #0C3404",
"v  c #023C01",
"b  c #0C3B03",
"n  c #0E3B0F",
"m  c #133405",
"M  c #1C3406",
"N  c #153C05",
"B  c #1C3B06",
"V  c #153309",
"C  c #1C3409",
"Z  c #1D3A0A",
"A  c #162613",
"S  c #1B2510",
"D  c #162B15",
"F  c #182A16",
"G  c #1E221A",
"H  c #1C291B",
"J  c #163016",
"K  c #163B10",
"L  c #232507",
"P  c #232C07",
"I  c #292B07",
"U  c #24240B",
"Y  c #2B230B",
"T  c #232B0A",
"R  c #2C2C0A",
"E  c #33230B",
"W  c #3D230D",
"Q  c #332B0B",
"!  c #3C2B0D",
"~  c #233307",
"^  c #293107",
"/  c #223B07",
"(  c #233409",
")  c #2B3309",
"_  c #233C09",
"`  c #2B3B09",
"'  c #33340C",
"]  c #3A330D",
"[  c #313B0C",
"{  c #3A3D0F",
"}  c #242211",
"|  c #2B2211",
" . c #242910",
".. c #27231B",
"X. c #2D221D",
"o. c #342213",
"O. c #3C2212",
"+. c #342A14",
"@. c #3C2914",
"#. c #332219",
"$. c #3C221B",
"%. c #2A3213",
"&. c #203219",
"*. c #333111",
"=. c #3E3017",
"-. c #3C3F10",
";. c #30301D",
":. c #252423",
">. c #2A2524",
",. c #242924",
"<. c #282C20",
"1. c #2C2B2B",
"2. c #322222",
"3. c #312A25",
"4. c #322D2C",
"5. c #253323",
"6. c #2D342D",
"7. c #2C3A2C",
"8. c #32302E",
"9. c #333232",
"0. c #3A3636",
"q. c #3C3B3B",
"w. c #411F0D",
"e. c #411F12",
"r. c #401E1A",
"t. c #44220E",
"y. c #49240F",
"u. c #432A0E",
"i. c #482A0F",
"p. c #41310E",
"a. c #442212",
"s. c #4B2511",
"d. c #442B11",
"f. c #4D2A12",
"g. c #44211A",
"h. c #4B241A",
"j. c #4C2818",
"k. c #502712",
"l. c #532A13",
"z. c #592E16",
"x. c #552C1C",
"c. c #582E18",
"v. c #453312",
"b. c #4A3313",
"n. c #443A12",
"m. c #4E3B14",
"M. c #533416",
"N. c #5B3017",
"B. c #5C3219",
"V. c #5F3C1A",
"C. c #62351A",
"Z. c #66381C",
"A. c #6A3C1D",
"S. c #482121",
"D. c #024300",
"F. c #0B4303",
"G. c #014C00",
"H. c #0C4B03",
"J. c #124204",
"K. c #1B4506",
"L. c #124A05",
"P. c #1D4807",
"I. c #1E4108",
"U. c #1E4A08",
"Y. c #015300",
"T. c #0C5303",
"R. c #005B00",
"E. c #0A5F03",
"W. c #165406",
"Q. c #1A5208",
"!. c #234007",
"~. c #224209",
"^. c #2C410B",
"/. c #23480A",
"(. c #2C4B0C",
"). c #32440D",
"_. c #38410F",
"`. c #30480D",
"'. c #25520A",
"]. c #245B0A",
"[. c #29580C",
"{. c #3C4410",
"}. c #006400",
"|. c #0A6103",
" X c #016A00",
".X c #0B6E03",
"XX c #136105",
"oX c #017400",
"OX c #22650A",
"+X c #444114",
"@X c #4D4416",
"#X c #424C14",
"$X c #484916",
"%X c #534017",
"&X c #674520",
"*X c #6F4422",
"=X c #434343",
"-X c #4C4C4C",
";X c #505050",
/* pixels */
"n.B.M.v.j.X.8 0 z C [ n.B.M.@X$X(.|.}.T.).f.l.M.).'.@XA.Z.C.Z.A.A.V.#XOX[.$Xm.n.-.{ ] p.' L.Y.H.$X*X%X{.{.[ B C 8 w C K.{ {.m.C.",
"L.` Z H./.K l V D.R.R.F.~._ b x D.R.}.R.Y.K.~.P.|..X].`.).^.).).^.(.XXoX XT.Q.W.Y.Y.G.L.W.R.R.Y.P.(.W. X XG.c 0 y | H.}. X XW.`.",
"D.D.D.D.D.D.D.D.v D.D.v v D.b z s D.H.( ( C F.Y.}.oX X}.T._ ' ) N D.G.R.}.}. X XR.G.D.Y.Y.R.G.D.D.G.R.}.}.G.c m V b Y.}. X}.Y.G.",
"v N ! ! ^ v D.v D.c = * x v m R c v N ] a.y  .b Y.R.R.R.J.! y.s.u.! ^ N G.R.}.R.R.Y.G.R.D.( ! M ~ ' N D.Y.D.l 9 } V Y.R.R.K._ D.",
"K ;.s.k.y.Q v v c < 8 7 & x m E W R P i.l.a.r } b G.R.H.Q s.s.y.s.s.y.! N D.R.R.G.D.F.[ f.t.w.w.W 5 < s v D y y y Z R.R.G._ ) D.",
"V a.y.s.k.i.Q c p 9 8 e 8 k j 3 5 E M E s.s.a.t  .b N Q s.6 ; o % & 5 y.u.M v D.F.N ' l.y.s.y.w.1 8 < j v k 8 8 h Y.Y._ ( _ u.P ",
"V t.a.y.y.y.y.! g l 0 | 2 z } 0 e U B ! t.s.k.! J.J.=.f.t q >.9.9.,.q 5 a.! N H.` f.k.s.y.y.t 4 8 8 , = U y y y Z H.) t.) M w.t ",
"V t 6 t.w.y.k.l.! T  .V 9 } l 0 e 2 U W y.s.i.` J.( u.W 9 ..9.q.=X0.:.q 5 u.!./.b.z.y.s.s.6 e e 8 8 8 8 8 e u a.) / i.y.Q U t 5 ",
"h 5 r 6 w.k.k.k.s.t.o.T y 0 U 0 y e 8 r a.t.! B ` i.k.t.; : ,.1.9.,.> - Y [ I.{ N.l.y.y.t e e y y 8 8 2 | t j.k.! ! y.t.6 t 5 5 ",
"d 5 5 5 w.w.t.t.t.t.s.O.8 9 k 8 8 8 8 e 5 6 W Q u.y.y.w.1 . : :.:.> % < Q _ _ i.l.i.y.w.r e 8 e e 8 < 9 t t.k.f.Q R t.6 t r 5 6 ",
"U f L L 5 t 6 6 6 t.y.l.a.y 9 8 8 8 0 U E 6 6 E I W y.y.t.4 % - - % 1 s.d.` P t.y.y.w.t.e.t 8 1 8 , = Y f.s.y.t.t.W 6 r L L 6 5 ",
"Y d 6 2 f r U m D.~ t.l.z.j.y y y | b N ! w.w.w.! i.k.y.y.y.6 7 ; t s.k.k.i.t.t.t.w.w.y.s.s.t y e y O.f.k.a.s.y.W t r U a h 5 6 ",
"2 f 5 5 5 5 I G.G.m y.k.z.l.s.t | h V Q t.a.6 E w.t.y.y.y.l.k.s.t.s.k.k.k.l.y.t.6 6 W s.s.s.a.t u a.k.k.y.W Y t.w.5 6 L c P 6 5 ",
"0 8 5 6 6 W I b D.P i.k.k.l.k.k.f.Q ^ u.t.o.X.X.r 6 w.y.f.z.N.l.k.l.l.k.i.y.a.t X.X.#.O.y.a.f.l.x.c.k.s.k.y.t.6 t 6 6 6 L L 5 e ",
"y y 4 5 6 5 U P N o.e.y.s.k.l.z.z.f.d.a.o.4.q.q.3.y 6 w.t.d.f.l.z.l.k.k.y.t.o.3.q.S.q.X.O.t.f.l.C.N.k.s.w.e.t e.w.w.6 w.5 e e r.",
"u y 2 8 3 L 5 L m 5 t e.k.z.z.c.N.k.a.o.>.0.-X;X=X4.o.6 t.! d.l.l.l.s.t.t.o.3.q.-X;X=X5.y t.k.k.i.p.! W e.e.5 w.w.w.6 5 4 e r.S.",
"u y 0 r 5 Y 6 I g 5 6 t s.l.C.z.M.^ Z V D ,.0.=Xq.8.:.7 < W k.z.C.N.s.6 0 q 1.q.=X0.,.q X.M.v.*.=.b.d.E t t 6 w.w.w.w.6 e y u u ",
"y y r e.W 6 6 5 R t t a.a.a.l.l.M.Q m v x @ > :.1.:.: & 5 a.s.c.N.k.a.a.2 - :.1.1.q - 0 B.&X+X) f.f.a.s.j.e.6 w.w.w.w.w.e.e.y y ",
"y y w.w.6 6 6 5 5 t s.t.a.a.e.s.y.t.! ^ b i + - : - & 3 R +.e.s.y.t.t.s.w.< % : - - 3 l.B.M.) ^ y.e.a.f.k.s.e.6 6 6 6 I E e.t e ",
"u W w.6 6 5 L g h W s.y.s.t.t r w.s.z.] C h *     # 3 ! ~ Q a.e.6 w.t.s.s.5 & X o 3 l.c.l.f.+.+.5 r 6 s.s.s.s.e.5 6 3 s f 6 e.t ",
"W t.6 6 E L m b m W y.t.w.t e 8 r e.j.! ~ ! E p i d ! u.^ E 6 e 8 5 6 t.t.t.L a s ! N.f.t.t.O.r e 8 4 6 t.y.y.a.W L Y f f 6 6 w.",
"t.6 5 E h m B N B W t.W 3 9 2.2.y e w.Q ~ ! t.h s P ! y.t.5 5 2 = 1 4 6 E W Q N F.) d.Q W t r 8 y y w y 5 t.y.y.R g L d d 3 6 E ",
"t.6 5 g m ^ ] ~ m W 6 5 } 1.0.0.2.y e Y ~ u.t.R C ! s.y.t 3 U k = 2 3 3 Y t.u.B F.[ ! Y 3 e y 2.0.q.4.w e 6 w.t.^ M Y g s $ 3 Y ",
"6 Y m b N u.y.^ M E 5 e w 1.0.9.1.y y U B p.y.! ~ u.y.5 8 2 j U 8 8 1 f U t.u.M J.[ u.U U 8 y 2.9.9.4.X.e e 6 w.! E W h x a f 5 ",
"E m v b R y.y.R g 0 e 0 S G ,.:.q y y Y / p.i.t.! t.t 1 4 5 E 3 8 e 0 j U 4 5 m b [ t.P U r w q :.>.q w e U U 5 t.t.t.P m h f 5 ",
"m D.F.Q W s.s.Y l ..4.;.j - ; ; 7 e e.d.v.f.y.y.w.5 8 1 5 6 r 8 8 8 3 z U r 5 U B ^ ! P I e.u 8 7 q 7 q >.&.A 0 5 6 t.I ~ W E 5 ",
"M B B f.t.t.6 0 ..6.q.6.A < 7 8 e O.a.f.M.k.w.6 5 4 4 4 4 4 8 1 8 1 3 3 o.t 5 3 P I t.R ~ ] s.t 8 7 8 >.6.7.5...4 5 5 E E s.a.t ",
"! R I.f.6 W Y 0 w >.9.,...8 e t s.y.t.W ] t.6 4 4 6 5 1 1 1 1 6 t 3 1 e 5 t.w.6 3 3 W P N _ f.f.t 8 8 ..F J D 9 e e 6 w.6 y.t.w.",
"a.^ ~.f.t.@.( z 9 q q > 7 y t l.B.k.6 W ! W 4 4 6 w.4 4 1 4 t.t.t.~ f 3 3 5 W 6 3 0 Y C F.B ] k.s.t e 7 O i @ 7 t t t.w.t.s.t.t.",
"t T _ f.t.i.Q h k = 7 7 8 y e.z.C.k.6 6 5 e 4 4 6 5 1 4 5 w.y.t.! ~ B L 3 1 4 E T j 2 U P / ` y.w.w.Y } * a * y e.y.s.w.E ^ E 5 ",
"t U C t.6 6 W Q ( c d j T O.t.k.z.s.6 4 e 4 5 5 4 1 4 4 5 5 1 1 1 L d L 5 1 4 4 L d j 2 Y T ^ t.6 Q R Q T x U a.a.t.t.R M N Y 5 ",
"g.o.R w.6 6 6 6 =._ D.J.' W 6 y.k.t.4 1 4 5 6 1 = * h h L < < , , & $ L 6 6 4 1 3 k g z 3 k U w.E T ) d.` D.) k.a.w.t.P v M t r.",
"S.a.6 6 6 6 w.6 y.b.!.I.u.6 w.w.w.6 e 1 4 w.w.5 I I ^ ~ m U 1 1 1 2 f I w.w.w.6 r E C C r < 3 5 5 T ) f.!.T.!.k.t.W Q m v M a.h.",
"s.t.6 6 5 w.W 6 y.k.] _ W 6 6 5 4 e e 4 5 5 4 5 6 t.y.E h L 4 1 4 E L I w.y.y.w.5 3 k U r 8 8 y Y ( ) u.` H.` y.W T c v c Y w.y.",
"s.6 t t t 6 6 W y.y.] ( ! 6 5 4 8 4 4 e 5 e e 5 6 w.6 2 f Y 6 6 6 W 3 2 1 5 w.6 U l f 3 t 8 8 8 3 z ~ t.! / ) t.R b D.v z t 6 t.",
"O.t r.g.$.E 6 6 e.a.a.! t t 4 e 4 6 6 e w.4 w.y.w.w.4 2 = Y t.y.y.t.6 4 1 4 6 t.Q M h 5 t 8 8 e 8 k U 6 a.! @.O.U c b v ( g.t 6 ",
"t e.g.' ( h t 5 r y 2.$.r y y w.w.w.6 e w.w.y.s.6 4 1 = L E y.y.y.y.w.6 1 8 4 6 W I N ~ Y 0 r 6 5 3 9 y y 2.y r 0 Y m v ( h.g.t ",
"O.a.Q N B T o.t 0 X.1.>.q e t w.w.w.w.e.y.y.y.5 4 4 3 f P W y.W W t.w.w.5 4 4 1 5 E ~ b b U t w.6 0 0 w >.4.:.8 t 6 T v / a.a.w.",
"$.t Y m E W a.t w :.4.1.q y 6 y.y.y.w.k.w.w.w.6 6 5 3 L Y 6 t.E P Q w.6 4 6 4 6 6 w.W ~ b C E w.4 f k q >.9.>.q t O.%.v h 6 6 t ",
"g.u o.z 5 6 a.t 8 > 9.1.q y w.t.k.w.w.w.5 6 w.y.w.w.E 3 < 1 6 W ^ E 4 1 1 4 w.w.y.t.6 3 c F.I w.E P z q ,.9.>.q r W ~ v h t u r.",
"$.g.g.R 5 t.t.t w :.1.>.q y w.t.w.w.w.w.1 1 5 w.y.y.E I 3 < 1 4 6 4 1 1 6 w.w.y.w.6 4 < c F.~ w.t.Q | q :.4.:.7 t W ^ v  .r.h.u ",
"a.6 E R O.a.y.t w :.q.0.q y w.e.w.5 6 e.4 1 1 4 w.w.t.E 5 1 7 , < < 1 5 w.y.y.w.6 1 < 3 h b k 5 t t t w 1.q.4.q r W ^ m | s.t.t ",
"g.6 t.6 h.f.s.u w >.=Xq.>.r 5 r 1 1 e 4 5 4 1 < 5 w.t.E I 3 8 < , 4 w.w.w.w.w.4 1 < 1 5 Y j = 4 r t u q 9.-X0.q e O.T C t t.e.e.",
"s.t w.a.l.s.g.u w 1.q.0.>.e t 0 U 9 e e 4 4 5 1 < 1 5 E P m U 9 2 Y y.w.w.w.4 , 1 1 5 4 0 Y 2 4 r t t q 9.q.8.w u u T ~ t.6 6 e.",
"s.5 5 O.j.e.g.a.w :.4.1.q y r | z 9 e e 1 1 6 6 1 , 1 5 E B m d g M @.y.t.4 1 , 1 5 4 1 8 k P 5 r t t w ,.9.:.w t a. .h 6 6 6 6 ",
"t w.6 j.N.a.t e.8 :.1.1.q r r } l 8 y e 1 8 8 e.6 1 , 1 6 E B v c R s.w.5 1 < 4 5 1 8 8 8 U U 6 5 t r q :.9.:.q t O.R R a.5 6 6 ",
"s.t.t.z.x.u t e.8 q 9.9.q y t Y l 2 5 t e e 8 4 5 5 1 < 1 6 E B N Y e.5 1 < 6 6 4 1 1 e 0 Y 5 5 r E t w >.9.1.w t t r a.t.6 t.t.",
"f.s.e.a.w.g.t t q >.=X0...r t | l Y 4 t e e e 4 5 5 5 1 < 1 L ~ R t e 1 1 5 6 4 5 4 4 4 U Y 6 Y h L t w 9.=X1.w e O.+.+.t t 6 t.",
"a.6 t t 6 a.a.6 w >.=Xq.:.y t Y m P Y 6 5 e r 5 5 4 4 5 1 < = f U 5 8 1 5 5 5 5 5 5 3 Y E Y L m m P t w 9.=X0.q e t %.N t t t 6 ",
"t t g.a.6 6 t y 0 :.0.q.:.e 6 t h m P E 5 r r Y R Y 3 Y I L 1 $ < e r 5 5 Y 5 W 6 5 P m m m m b b P t q 1.q.9.q e t R h t g.t 6 ",
"u t t O.6 6 u u 8 q 9.9.q e 6 t.Q B ^ W w.E ~ J.F.F.N h h Q 6 1 < 0 6 E B N ) t.W I N D.D.J.~ Q ~ P r 7 :.0.1.7 u u | Y t W t t ",
"g.r E 6 5 +.g.O.w q 6.1.q e w.W Q B E 6 6 w.R m D.D.D.b M ! w.w.R E t.R J.D.m M M c F.F.h E W W ~ ( t q :.9.>.q t s.+.Y 5 6 r u ",
"@.%.m 6 I Z ) C ..:.9.,.q y t.t.E P Y 5 6 6 6 R m D.D.b E t.w.k.y.y.Q J.D.D.v v c P M x P 6 w.t.I ^ t w 1.6.q q e.s.s.a.6 t r.g.",
"( D.N t 6 R P 5 7 q 1.1.q y 6 t.W 5 5 5 5 3 3 3 P N D.b Y 6 w.w.y.! N D.D.v v x T 5 P c L 6 w.t.t.! r 7 ,.4.:.q r 6 a.5 5 o.@.s.",
"J.F.T t 5 6 6 5 w :.1.1.q r w.t.E L d 2 < d p x x x a d 2 8 5 w.6 R d a x x x a = 8 9 = = 8 4 6 Q Q 6 w :.9.:.q e 6 5 6 r z B Q ",
"( T t r.r 6 6 4 8 :.q.1.q r w.6 Y g k 8 8 1 2 c v v c 9 8 1 e 4 3 p a x x v x p < y 5 l k 8 1 e 6 6 r q 1.0.:.q 5 5 6 y t +.m m ",
"Q 6 h.h.r 5 6 y w 1.=X9.> y 5 5 U g Y t e 8 9 l V c c 9 e r e 8 < p x x D.v c k 8 r 5 P L 1 8 8 e e e X.9.=X>.7 e t t r e.a.o.m ",
"O.5 w.s.g.t t r 8 >.=Xq.>.y 6 e Y g Y 5 e 8 e 0 } l  .0 e e e e 2 s x x v z 2 9 e r E Y E e 8 8 e t t q 4.=X0.w r r t e.h.s.t.P ",
"h t 6 e.h.' Z $.w :.9.0.q r t r Y h 5 5 e 8 e t } l S T Y 5 e y 9 s x c T 3 k } y 5 5 L U r 8 e u t t w 1.0.1.q u h.r.O.f.y.t.5 ",
"W 5 5 e.h.' _ W 8 q 9.9.q 8 5 r Y h Y 5 y y e r | z Y 5 5 6 5 e 2 p c 2 r E j k r 5 5 6 5 r e 8 e t e > ,.9.1.q t h.g.P M 6 5 6 ",
"r 8 e t a.a.g.a.8 > 1.,.> 0 6 e 5 6 6 5 e 8 r r | l S h U 6 4 t | s c U 5 5 5 3 e 5 6 E 6 r e e y t t 7 :.1.:.7 t h.a.5 5 r e 4 ",
"@.a.h.t s.Q ) O.w :.9.9.A l 5 5 5 6 5 5 r y y r 0 U S z I 6 6 4 0 p c U 5 E h g E 5 5 L Y 5 5 5 r e.t w :.9.:.q t g.t E | r.h.k.",
"R s.x.x.a.6 6 r w >.q.9.H h E r 4 6 6 5 5 5 r t t y o.Y Y 6 6 W E T g L L h b v m h T Y 5 5 6 6 r t t q 1.q.4.9 r 5 E ~ ( s.k.i.",
"T 6 a.s.t.6 5 t 8 1.=X=X:.3 6 t s.t.y.! / J.N / v.B.f.a.t.t.s.l.N.d.~ [ v.[ J.F._ ' ] d.s.s.w.e.e.t u w 9.-X0.q 1 6 5 ( b ~ ~ ~ "
};
