/* XPM */
static char *sc3[] = {
/* columns rows colors chars-per-pixel */
"64 64 211 2 ",
"   c #6E787F",
".  c #777777",
"X  c #8D8D8D",
"o  c gray54",
"O  c gray44",
"+  c #5B5B5B",
"@  c #484848",
"#  c gray32",
"$  c #646464",
"%  c #717171",
"&  c #808080",
"*  c gray49",
"=  c gray45",
"-  c gray22",
";  c gray18",
":  c #2C2C2C",
">  c #464646",
",  c gray35",
"<  c #565656",
"1  c gray31",
"2  c gray27",
"3  c #4C4C4C",
"4  c gray28",
"5  c #393939",
"6  c #2D2D2D",
"7  c #2A2A2A",
"8  c #313131",
"9  c #5A5A5A",
"0  c #555555",
"q  c #4E4E4E",
"w  c #505050",
"e  c #535353",
"r  c gray33",
"t  c #434343",
"y  c gray30",
"u  c gray29",
"i  c #3E3E3E",
"p  c #3C3F3F",
"a  c #636464",
"s  c #989898",
"d  c gray57",
"f  c #898989",
"g  c #8B8B8B",
"h  c gray56",
"j  c gray53",
"k  c gray52",
"l  c #727272",
"z  c #687178",
"x  c gray36",
"c  c #797979",
"v  c #929292",
"b  c gray50",
"n  c #606060",
"m  c #838383",
"M  c gray40",
"N  c gray23",
"B  c gray26",
"V  c gray38",
"C  c #515151",
"Z  c gray25",
"A  c gray24",
"S  c #3A3A3A",
"D  c #202020",
"F  c gray13",
"G  c #2F2F2F",
"H  c #494949",
"J  c #414141",
"K  c #4B4B4B",
"L  c #3C3C3C",
"P  c gray55",
"I  c #909090",
"U  c gray47",
"Y  c #888888",
"T  c #848484",
"R  c gray51",
"E  c #656565",
"W  c gray48",
"Q  c #A2A2A2",
"!  c #818181",
"~  c #7E7E7E",
"^  c #6D6D6D",
"/  c #272727",
"(  c #626262",
")  c DimGray",
"_  c #585858",
"`  c gray16",
"'  c #5D5D5D",
"]  c gray34",
"[  c #7C7C7C",
"{  c gray39",
"}  c #6C6C6C",
"|  c #667077",
" . c #9B9B9B",
".. c gray46",
"X. c #3F3F3F",
"o. c #373737",
"O. c #444444",
"+. c #353535",
"@. c gray19",
"#. c #747474",
"$. c #686868",
"%. c #767676",
"&. c #626B73",
"*. c #868686",
"=. c gray21",
"-. c gray37",
";. c #9F9F9F",
":. c gray67",
">. c #B1B1B1",
",. c #778088",
"<. c #6F6F6F",
"1. c #5F5F5F",
"2. c #7B7B7B",
"3. c gray66",
"4. c #AEAEAE",
"5. c #747E85",
"6. c gray42",
"7. c #676767",
"8. c #8E8E8E",
"9. c gray63",
"0. c #A0A0A0",
"q. c #979797",
"w. c gray43",
"e. c #323232",
"r. c #606A71",
"t. c gray61",
"y. c #A5A5A5",
"u. c #343434",
"i. c #6A6A6A",
"p. c gray59",
"a. c #5F6870",
"s. c #3F4242",
"d. c #545656",
"f. c gray71",
"g. c #576068",
"h. c #687279",
"j. c #535555",
"k. c #808991",
"l. c gray58",
"z. c #A4A4A4",
"x. c #939393",
"c. c gray60",
"v. c #6D767E",
"b. c #959595",
"n. c gray20",
"m. c #9A9A9A",
"M. c #69727A",
"N. c #282828",
"B. c #767F87",
"V. c gray17",
"C. c #6C767D",
"Z. c #757E86",
"A. c #757E85",
"S. c gray62",
"D. c gray14",
"F. c gray15",
"G. c #707981",
"H. c #232323",
"J. c #9D9D9D",
"K. c #656F76",
"L. c #606971",
"P. c #717A82",
"I. c gray64",
"U. c gray70",
"Y. c #303131",
"T. c #383A3A",
"R. c #343535",
"E. c #222222",
"W. c #A7A7A7",
"Q. c #252525",
"!. c #474949",
"~. c #464747",
"^. c #434646",
"/. c #434444",
"(. c #353838",
"). c #ACACAC",
"_. c gray65",
"`. c #464949",
"'. c #4A4C4C",
"]. c #353939",
"[. c #3E4141",
"{. c #424343",
"}. c #3C3D3D",
"|. c #3D3E3E",
" X c #424545",
".X c #474848",
"XX c #373838",
"oX c #404141",
"OX c #393B3B",
"+X c #5D666E",
"@X c #879098",
"#X c #808A91",
"$X c gray68",
"%X c #A9A9A9",
"&X c gray72",
"*X c #B2B2B2",
"=X c #AFAFAF",
"-X c #727B83",
";X c #AAAAAA",
":X c gray74",
">X c #788289",
",X c gray69",
"<X c #788189",
"1X c #747D85",
"2X c #666F77",
"3X c #8A939B",
"4X c #404343",
"5X c #717373",
"6X c #5E5F5F",
"7X c #6C757D",
"8X c #89939A",
/* pixels */
"  . X o O + @ # $ % & * = # - ; : > # , < # 1 @ 2 2 2 3 @ 4 5 6 7 8 6 7 8 9 0 q w e r @ t y r u 4 i p a & s s o d f g h X j k l ",
"z x c v b $ r n O m k c M y N i B 3 V V 0 C C w Z B A S S B : D D F D D F G H J N N N N N N N N e K L 0 c P I * U Y T R c . . x ",
"z , E W Q ! , l c ~ R c ^ w L - / B ( ) _ G ` i L u C @ L - # ' r C C 9 ' K ] B - - - - - - - - K @ N ' [ g k U { M l } n r + J ",
"| < $ U Y  .! } ~ T c ..M y N / D B ) E 0 A ; X.o.X.3 H 4 - 5 O.> 2 2 q _ 3 ] > S - - - - - - - K +.@.r U ~ #.$.( # x $ %.* b n ",
"&.K ' ^ W *.I [ ) c c ..^ w =.6 : t , -.] - 8 > u K u 1 r # C C K H H 1 < < + ' u O.O.O.O.> 4 4 r 2 S ] $.M E V = b ! d ;.:.>.m ",
",.. $.V <.W & R #.#.....) q =.X.H K K K ] 3 2 2 q 9 _ 1 r e C , r C 0 ] n 1., x , x , e # # q y 0 _ 2 O.u V 2.o f d I s 3.>.4.R ",
"5.R R } W W ~ R j ) { 6.7.1 S Z @ u u u y y 3 4 e V $ -.-.0 C _ r x -.' ( 1.r r # 9 1 > 2 J L N A A t ] 7.U c 2.= ! m *.8.9.0.~ ",
"z 1.2.U b W . b q.* w.6.{ y - e.X.2 2 2 2 y K > H y q q V C q u q 0 + ' 1.$ ' y @ C H 2 2 2 i t t B =.] W #.$ ..6.I h * U X v 2.",
"r.0 w.* R f T W U t.y.v 6.3 u.L O.2 2 2 2 y H 2 2 2 2 2 ] x 6.) 1.x ' 0 # e # w w C @ L 5 5 J L 5 5 G C $.i.c U p.P T ! ! g 8.2.",
"a.r ' } #.[ l i.W c * U $ 3 =.X.2 O.L - - - - - - - - - + n ^ #.{ ' r , x x e C X.5 B q i - - @.X.2 s.d.U o ;.f.s m b ^ 0 ( m W ",
"g.X.1 ] 9 V l % } ^ } M 0 @ 5 Z t =.=.S L A X.Z L L A A , 1.1.-.+ + # @ 2 2 2 3 @ q @ w X.- - B O.t B 3 1.% . %.. n C y A 4 ] 7.",
"h.0 r _ n ( ( E V $ -.{ -.' 1.1.B e.L O.u y 0 x 3 q C C C ] + 9 e q 4 B Z O.2 2 2 C H r 4 J - C j.# # 0 1., x _ x _ , ] H 3 $ V ",
"k.R P v I v I p.p.s v v l.t.z.X E L i Z i i 3 , 3 H K K K 1 C 0 e y 4 L u.N t 2 2 ] K q C y o.^ g 8.x.g d g P f P f ~ . W 8.c.j ",
"v.i.R R *.X P X P x.8.I b.;.:.j = O.=.- n.=.1 x 3 2 2 2 < E . . M + w O.o.8 5 t 2 ] K q C @ 5 ] * f x.j d x.b.X j * i.*  .Q p.O ",
"z 7.O 6.W 2.% ..% * f X j *.h ~ ^ > - - @.u.2 u r _ K e l *.m.v ! ^ w r @ 5 @.X.e x K 0 + L G +.w U g m 2.W W U w.+ ! I v d h . ",
"z V Y ;.T w.V M ) W o *.o ..2.c ^ 4 - - @.u.J 2 > > y , <.b P *.% V ^ { 3 L G +.K # @ > > O.O.O.7.$ W g 2.$ 7.V 0 6.Y k m g 8.T ",
"M.( U . { 0 V U b ! #.m *.d I [ 6.> - o.G u.H @ t t q e ' i.#.^ , e r 3 @ > 7 N.+.B q H > @ > $.q.m M % b . { < $.Y X %.<.k X [ ",
"B.$ V _ w < $ 7.-.<.j Y f k ~ ^ ] Z =.G : u.2 Z n.- C E l ! W ^ n V $.E V q V.D G 2 # r r V # V c h b * b % w.U b.p.*.l.t.~ Y R ",
"C.' C i O.$ 6.% ^ w...T ~ ..M ] K A @.G 8 =.# t > u 3 V ( ] # ( n r 1 ] -.C : D ` H r r 3 u u V %.c U l U %.b s f *.b 2.& U Y . ",
"Z.c [ { 1 + 6.W 8.c.8.T b ~ b T ( H B O.> > C < 9 r t e ) <.-.< # 0 n -.u X.N.D ` i 2 2 o.n.; 9 k ) V -.E ^ = b R ! U T <.$.k %.",
"A.2.c.0.c 9 1.^ %.*.*.%.k g P S.2._ C K A o.A Z S o.e.B r 7.V # y , 9 > J u.D.F.8 4 9 K B J i -.8.%.M w H q ' ^ ~ b ~ d 7.< ^ ..",
"G.w.R I b { < x M ! k X Y 2.. = $ 0 C S u.=.o.- o.=.=.J > C 3 4 4 @ 1 4 O.V.F ` +.# E q 2 2 2 n b s ~ n # 1 # x i.* W o s d d #.",
"G.E % ~ o * E 0 C ( ) i.W c ^ V ' t u @ L - - - - - J L J q , E ) n r @ n.H.D ` +.- x ) ) n r { [ J.4.3.<.K 2 q 9 ' c R R R S.w.",
"K.1 < 9 V ' V ' w r , ( 1.{ ' C 1 X.- - - 5 N N 2 w , + 2 J K 4 2 K 2 n.- O.2 A n.8 o.- o.=.Z u V 7.b j j . # > 1.7.7.7.7.7.% < ",
"L.q e e e e e e > 4 w K 4 > t - N S N i B H 1 C 0 , < r ] > A Z X.S u.L 3 e 3 t @ y 3 4 A e.n.n.@ 1 1 1 w 1.$ ] n $ $ $ $ $ ^ 1 ",
"P.% 2.~ & & & & m f [ @ ; : u.n.8 S u + E $ < H 2 > < $ O ( e t 8 5 4 e 9 $ 1.H N A C E $.w o.i B J A - e.) m f 8.x.d j k k j } ",
"z $.<...R j j j h  .R K S +.=.- - > ( . . { r X.J w n %.2.) , u - 2 0 M c U } ' > S w i.) i.0 2 < _ # y o.$.Y m.I.U.3.t.h *.*.M ",
"z V V 1.E 7.^ i.[ j 2.K S 5 - - - t + c c ..0 A J # $ $.$ , 3 > L u 9 w.W O { ] H N y n # $ 9 X.5 o.=.=.8 $ b j Y *.Y Y [ $.M 1.",
"z V <.$ < 9 -.E 6.2.c K Z L - - - e.@ $ W l _ o.i > 1.U ..i.q A - B ] 7.W b %.9 Z - u # n @ O.L G : : : G 3 1.W R O [ c E < #.$ ",
"z V R %.C y , ' E W c K - - - - - @.u.H i.~ % X.+.# ^ *.*.O % Z : +.x 2.g X W ( J G X.] M q e.+.@.6 6 6 G $ 9 { l I #.n 7.= f $.",
"z n Y P $.] r 9 E ) ^ H +.u.u.+.u.Y.6 L + %.! ( N L # = Y 2.6.i @.O.6.* T } u @.7 6 K ( x @ ` t 4 4 > 4 =.1.w.$ M E ' 7.U p.z.w.",
"z , = 8.g ..E V M $ e X.@.` N.6 7 T.R.n.> + U = , L A 0 } <.x > 3 $.l <.x t ; E.F.S -.' 4 u./ A 2 K 4 K o.> ..U M 0 ] l b.W.z.i.",
"z , ' l & c ^ V 9 1 ] t J L - - - J Z +.o.> i.) } , t X.@ r # ' O %.1.1 i V.E.D.- r ( # 5 Q.` =.5 5 B H o.C c * l V i.R  .q.l.E ",
"z -.1.n i.= l i.<.l #.K N S - i Z O.2 B o.S > 9 ..} , w _ $ O 2...V K 8 F.F Q.=.@ V + t V.F G ; - L t A e.$ b Y & w.7.c Y Y j V ",
"z w.! ) , 1.<.R c.l.o C e.G G i 2 !.~.2 t u.+.r U k %.. R j T #.$ q =.D.D ; L C 7.{ 0 - D.D e.A O.2 2 5 8 = T v t.T W <...& W V ",
"z ( 2.U $ } [ R T T } 2 @.: : y e ^./.2 2 n.u.t , c d I *.W M ] B e.Q.N.n.@ w ( ) _ Z / D D (./.< + + J e.0 ) h )._.o . } = ..( ",
"z _ $ 1.^ * O $.$.$.n t @.6 6 r 1.`.'.w , N : u.@ _ } 6.7.< i G H.N.: +.e ' 7.% , 4 e.H.D D ]./.2 2 2 2 +.C M m b.c.d *.c { ' r ",
"z y y y ^ <.{ -.' + # X.- S N 5 J [.{.2 < N ; G n.i # C > 5 6 H.D D / N K -.^ -.@ 5 F.D D D }.2 2 2 2 2 +.4 { i.[ k d 8.T % , # ",
"z Z 4 n M E $.$ 6.7.C N o.J 2 L J |.B K x X.=.N u.n.5 5 e.7 E.D D H.D.: L H # > o.V.Q.F D D  X.X2 2 @ > +.t V ! [ M = & ~ #.$., ",
"a.L 0 { 1.' E ) ... x S 8 S t L - XXoXy ' 2 - > B =.e.7 F.E.D D.F.7 : N.7 @.e.6 / E.` H.D Q.OXO.2 2 q @ +.H 1.-.' u ] M ) $ } V ",
"+X> q r w # # C ] , q - G 8 =.- e.n.Z 2 K O.N O.3 u H Z =.8 @.5 =.u.u.; ` E.D D D F.V.H.D ` e.=.o.o.S - e.- i 4 B S i 4 # 1 < H ",
"@XY T #.W R ! & R R ! * [ [ [ * @ =.J 2 2 2 L J 4 Z K < ] < 1 0 w 2 N =.G 7 7 7 7 V.Q.F / V.+.e.e -.-.-.-.-.-.V n n 7.$ 6.E 6.= ",
"#X*.p.! %.p.J.9.J.9.$X9.9.$X%XT [ < 2 2 0 x t J L H ) } ) % 6.% { r @ N - G : D.` : H.D ` +.- ^ & v 9. .} ' U  .z.z.$X&X*X=XW.. ",
"G.w.2.<.n ' = & & Y *.o X m %.l } w 2 2 0 + K L J ' <.} O M 7.= ^ , H L ` 8 G u.G H.D F V.N 2 V [ P h k m ) M W ! P Y W %.l.d % ",
"-Xl ^ 7.7.$ 1.^ % [ *.! W i.E $ 7.# @ u C q K i J q 9 M -.#.% c <.n 3 L X.@.` V.: H.D ` X.$ ( M [ v S.8.X & n ( 2.I ;.b.l.:.p.% ",
"5.% R X d ! M 7.. * #.^ E %.T W ^ _ r w q q q i A 3 9 1.n <.c %.} n 3 L - J 7 ` N.E.D.; Z ] < $ [ j J.c.Y $.e # = ! l.;X:X;Xx.% ",
">XR 8.m.$X;.* $.( V ' <.k v I * ^ r e J A +.8 8 =.2 e q + 6.[ #.i.n 3 J S L o.` F D ` X.2 ] K n [ j U = i.x W 1.{ [ o X m.X j O ",
"5.& 8.I S.m.Y % $ ( #.m.9.b.h * ^ w y X.+.; : : G X.J 0 7.<.. ^ ) n # 4 L - +.Q.D F.8 t > O.i ] } c 6.E b b.,Xx.7.l c & k m 2.^ ",
"M.W j <.} <.[ b ~ . l.;.l.c T * ^ @ t K 9 # e q 3 - 3 0 ' $.l #.} n r @ L 8 : H.D @.4 < , H t -.U & 8.m x.J.W.S.2.E O %.b c ..$ ",
"k.8.Q * W ) E W R c ~ R o ;.X c ^ 4 J y ( i > C C @ 2 q 9 ' w...} n r @ L G : H.` i ] ' ' K 2 n [ U { <.b g q.d n 9 c <.l ....( ",
"P.* k s g k %.^ c c <.U * & ! . } 5 S t u < C ' y O.L J q _ $ O } e 1 X.o.G H.F u.q x 1.' q 4 n W U p.o ! R W * ..s m.h % $.7.< ",
"<X. ~ *.9.9.I & i.= c = M ....) E @ i X.S J L J L J i Z 4 1 9 $.i.M r i G : H.V.B n V -._ < w 1.} = b b . b j [ x.b.*.[ i.x , w ",
"1X} } <...= w.{ q ] $.#.i.O ) + _ q 1 _ t A S J L J 2 L Z H r ^ E ' 3 L G N.F.o.w $ q 2 2 2 2 e x 6...% O ..! & c . . } n w w 3 ",
"2X# 0 < r w K 2 N X.4 0 # 9 r > B A Z H i A S J L J 2 J 4 J L > S o.e.V.F.F ` O.-.^ w 2 2 2 2 t > w , 0 , 0 q @ K # r r w 4 q 2 ",
"3Xo h l + K i Z @ ' ! b.k _ 5 e.=.@.u.- - S 5 J L S B 2 2 t 5 ; 7 ` ` ` ` ` e.u < n y 2 2 2 2 H O.A 5 6.T k R W b m T T T T X * ",
"3Xl. .! $ y L @ 1.O Y o k _ N @.F.` u.- - - @ @ L - J 2 2 2 O.S o.o.o.o.o.o.Z y C 9 + 9 # w w H 2 3 4X5XP 0.l.8.;.l.0.$XW.l.I * ",
"G.* X 8.%.V y < M l ~ c } w o.=.- @.u.- - - u H y C , x $ > J > 4 > > 2 N J y C C C @ u.6 =.@.i O.O.[.6X[ l.m.j o k R R R ! ! w.",
"G.E . 8.j i.< E = k k c M y L - - e.=.- 8 +.w x 3 2 2 2 2 2 2 $ ) n < X.=.5 B 2 2 ] K q C @ S G : : +.< W g P W l R ! ~ = <.O r ",
"G.E ) W m.g E <.[ ! b U i.1 L - - e.N i L L K , 3 @ H H H H > < ' ' 9 J +.J 2 2 2 ] K q C K =.n.u.u.+., 2.Y ! #.( ' ) 7.E 1.{ H ",
"7X+ E %.T l.f % %.& c ..$.q 5 X.O.=.X.2 H K e + 3 q C C C 0 ] + ' ' , Z J 2 2 2 2 # u # H 2 - 2 > L +.] %.. } n M 1.M l m g d ) ",
"v.-.V ) %.R f b ) U c ..^ w =.L 3 H 4 > A S B > S - 2 1 x -.6.$.1.{ E + 0 r 9 C _ r , C O.Z Z y @ e.+.C ' V i.<.W f P c._.*XU.W ",
"8Xs #.1.w.. b R * l = ..M y =.=.H C C 1 K H K 3 u H y w ( w.^ i.n 1.n n -.$ <.$.e H K 4 A N u.w u e.A X.2 M m v 8.h f I z.:.%X. ",
"-X! X = ! * ~ R o E + M ) w L @ w J e.=.S S # x $ 7.7.7.) i.) V ' ' ' ' ' M V M 1 2 2 2 n.6 : C K O.2 M 2.& % } { 2.R m T S.J.#.",
",.) c W ~ 2.%.* s j c O ( 3 =.2 @ L @.: : u.C n.8 o.o.o.o.o.=.=.J > 1._ , $ 1.M _ _ x x x ' x + K q +.C . <.( c l q.v 2.%.f 8.% "
};
