/* XPM */
static char *sc4[] = {
/* columns rows colors chars-per-pixel */
"64 64 126 2 ",
"   c #3A4045",
".  c gray24",
"X  c #4E4E4E",
"o  c #515151",
"O  c #484848",
"+  c gray28",
"@  c gray27",
"#  c #313131",
"$  c #222222",
"%  c #2A2A2A",
"&  c gray21",
"*  c gray26",
"=  c gray31",
"-  c #3A3A3A",
";  c #1B1B1B",
":  c gray4",
">  c gray3",
",  c gray11",
"<  c #434343",
"1  c gray30",
"2  c gray19",
"3  c gray5",
"4  c #272727",
"5  c #2C2C2C",
"6  c #565656",
"7  c #535353",
"8  c #5B5B5B",
"9  c #676767",
"0  c DimGray",
"q  c gray33",
"w  c gray36",
"e  c #686868",
"r  c gray37",
"t  c #323232",
"y  c gray2",
"u  c #5A5A5A",
"i  c #5D5D5D",
"p  c #4B4B4B",
"a  c gray35",
"s  c gray32",
"d  c #3E3E3E",
"f  c #282828",
"g  c gray16",
"h  c #444444",
"j  c #585858",
"k  c #101010",
"l  c #0B0B0B",
"z  c #1E1E1E",
"x  c gray17",
"c  c gray22",
"v  c gray10",
"b  c #494949",
"n  c #151515",
"m  c #1D1D1D",
"M  c #353535",
"N  c #414141",
"B  c gray23",
"V  c gray13",
"C  c gray18",
"Z  c gray25",
"A  c #181818",
"S  c gray7",
"D  c gray20",
"F  c #232323",
"G  c #161616",
"H  c gray8",
"J  c gray12",
"K  c gray29",
"L  c #555555",
"P  c #505050",
"I  c #4C4C4C",
"U  c #464646",
"Y  c #3F3F3F",
"T  c #343434",
"R  c #2F2F2F",
"E  c #0C0C0C",
"W  c gray9",
"Q  c gray14",
"!  c #252525",
"~  c #202020",
"^  c gray15",
"/  c gray34",
"(  c #626262",
")  c #373737",
"_  c #393939",
"`  c #2D2D2D",
"'  c #3C3C3C",
"]  c #111111",
"[  c #191919",
"{  c #5F5F5F",
"}  c #131313",
"|  c gray43",
" . c #0E0E0E",
".. c #090909",
"X. c #010101",
"o. c #3D4348",
"O. c #070707",
"+. c #3E454A",
"@. c #343A3F",
"#. c gray6",
"$. c #292F34",
"%. c #060606",
"&. c #272D32",
"*. c gray39",
"=. c gray40",
"-. c #21272C",
";. c black",
":. c #22292E",
">. c #040404",
",. c #2B3136",
"<. c #31373C",
"1. c #3D4449",
"2. c #3B4247",
"3. c #656565",
"4. c gray1",
"5. c #353C41",
"6. c #020202",
"7. c #1F261F",
"8. c #0D0E0D",
"9. c #363D42",
"0. c #393F39",
"q. c #2D2E2D",
"w. c #41474C",
"e. c #43494E",
"r. c #3C4248",
"t. c #282E33",
/* pixels */
"  . X o o O X o o o o + @ # $ % & * @ = o o + - ; : > , % & < @ @ @ @ = o + - 1 o o + 2 3 4 & < = # 5 6 7 8 7 8 9 0 q w e r t y ",
"  . X u i w 8 8 8 p X a s d f $ g . h @ X j + 2 k l z x c h j 8 8 8 7 u q + - 1 u q + 2 3 v 4 b c $ n m t & M N B - * < M % g V ",
"  . X u i q o o o o + = + @ B C $ % Z @ @ @ - C A z % & < = o o o o o o 8 b - 1 o 8 b 2 3 > S D F G H H z % $ M < @ - c A H H J ",
"  . K a L o o 1 P 1 K I K U Y T 4 $ & - < N M g , F R B O I P o L 6 s 1 s p Z X O o * R 3 E W x x Q F J ; ! % & - - T % J F J ~ ",
"  . K a P P I U = 1 @ K @ @ @ N M ! J g M t $ ~ ^ # . h b I P / ( r 7 + p h @ b N h - C 3 E W x . p 1 & A z g 2 4 ! J V ) Y C V ",
"  . X u u 7 X X P o @ X @ h . M g x M . d d # % m ! # - < = o q / L s X j @ . p X L @ R 3 > S D 5 g f J m 4 V t - B 2 T Q $ ; J ",
"  . U j 1 = o b = b X O X + h _ ` ; x R N ' 2 Q J f T N 1 O = o u 8 7 O O X @ = Y U ' C 3 ] m $ t T D % A ~ t c 2 R C ; 4 t % V ",
"  . X u q o O @ X o . I . < @ @ - R [ 4 x x A z % & < @ @ = o 8 9 { 7 + = ' < @ @ @ - C 3 > } D < u i d v z ~ % V ~ G % * @ R V ",
"  . 1 u q b = X + < < @ p @ - c - p c m k E , x & N < < @ @ = a i 8 a O 1 ' K 1 B c < 2 3 m % N = 8 | r . ,  .E k S B j P U R V ",
"  . O a o 1 K * + Y Y N - c B _ Y N X ' c 4 V % & B ' ' Z h I P j s + * N & ) c B ' h 2 3 m % N = j a = d # ! Q _ p { P ' h R V ",
"  . X u = U B < c 2 D % 2 ) d _ c c O + @ # $ ; D d h Z d h @ K p p U - c D ) c d Y h 2 3 m % ) b P I p U Y D t . K U @ . Y C V ",
"  . X L U K ' 4 m V F F z _ - c d - ' _ c B x V C ) < N d h @ d h @ d _ t % R ) c Y h 2 3 F t D ' O I K U # ) t % g & ' @ D ` V ",
"  . X K B . _ , ! D M M _ K ' c - _ c c c B R $ % & < . N ' < * h @ - 2 5 % 5 C ) < @ 2 3 W ' * _ < + . B 5 ^ D x # 4 z M ` Q ~ ",
"  . U X . c c M Z I U - p Y c c c ^ T c c c C $ % & _ c < - < B _ _ R 5 5 5 5 5 & _ _ C 3 S V Z - < B c c Q 3 J T c & M c Q G n ",
"  D * @ B c * B c * 1 P U # & ) c p ' c ) C F % F V g M c * h h - ) ) c _ R ` ` & c c C  ..., T ) ) ) ` x G ..S f x M ` x V n } ",
"  D c * B c - _ c c c c & M c 2 & c c & C C R R R # ! f # D D D D F $ M < - c c c c c C H ] ] $ , ; v [ ] > X. .v ; ; ; ; ; : > ",
"o.T ' Z - c Y - ' R x t # 2 & M ) M ) C 5 t ) c c Y D C ^ Q Q Q Q Q C ) Y . . _ ' _ c C ..O.E H n : X.] H H H H O.> E k H n ] ] ",
"+.T . _ D t ) c D g ^ ^ T D t ` # ` # f x # t ) C 5 & . T ` 5 5 5 5 ' _ d h Y R N Z _ C S  .A g 5 W l [ T J , J 3 } J x ) _ C V ",
"@.! M t D T # & c @ O B c M C t C 5 5 $ % & C R . Z ` M c ' M T T T B Z h d U N p U N R A V 4 _ M % m #.}  .H z % ) ' + @ I - % ",
"$.H v f M 2 T 2 c M B B _ c & 2 5 5 5 $ % C ! % - . @ B c - N * - N - < ' b O Y . B < N v g 5 c 2 Q A %.%.; f 5 & < @ M # @ < R ",
"&.> S z % 5 5 5 5 5 & R ` ` ` 5 5 5 F ~ % F D C 5 ` C & c c _ _ c ! V M I . _ c c c _ < ; g $ x $ G : S m ~ T ) < @ = *.=.7 B ` ",
"-.;.%.k , J ~ ~ g x x x x 5 5 5 x $ ~ g A n f 5 M C M c c _ _ N B I = = ' ) ) C M ) c Z ; O.: z W : } ~ 5 ) _ < U P o U h X U Q ",
":.>.O.> #.} ; m m m m m m Q f 4 J m m ; n z % C ` C ` D M Z * 2 N * ' B _ C 5 R 5 5 # F G g J 4 , 3 ~ ` ) B h O P X X < _ U * Q ",
",.S S S :  .#.#.#.#.#.#.} H v n A [ [ } W J $ 2 ` t # # # D D ` N - Y ' T ` 5 C f 4 V ~ G Q W z #.W ` x C M Y U I U Z M ) K & $ ",
"<.[ J ~ S ..> y >.O.y E } [ ; ; J ~ ~ ! 4 V , F 2 D ) D # t ` # * - c C 5 t ` $ ~ ~ ^ 4 W z G [ v ! ' J x , g & < _ t 4 & . C G ",
"1.f f f J } : %.%. . .[ , ^ f f f f f t C 2 % ; z ` 2 ` D 2 ` R D 2 ) C D ) C $ ~ C T ` A z G H z t < K D ` $ ^ t ` ! f R 2 z : ",
"2.t Y N R V n S : S , ~ f 5 5 T C 5 5 C 5 C 5 V z V % T R M C T C T R 5 & 4 $ ~ ~ T R 5 A G E ` F F ) + 3.u * & & Q W A A A E F ",
"  D c * # 5 $ G : > ! M C 5 5 5 5 5 & c c C 5 5 & v z T C 5 5 5 5 5 & Q ~ ~ % & Q % & C A H H d @ - F x ) c c C $ G H z ~ ~ n 4.",
"  g T C T 2 5 Q $ k S , f F g $ f % 5 5 5 5 5 5 5 Q [ m f 5 5 M C 5 F $ D C 5 5 5 & C 5 A z g N X o + - C ` ) ! 5 R 2 2 5 F W l ",
"  g g x 5 D x x 5 ! v n A ! Q V ~ ~ 4 g g g g g g g x z , Q x 5 5 5 g x 5 5 5 5 5 D ` g W ; ~ . N I < _ # ) c # - + O @ M D $ n ",
"  g 4 ^ x 5 4 x 5 5 4 ~ ] A ~ , ; J , J , J ~ , J ~ ^ x m n J % f x $ % f x f z , % 5 ^ W k [ R ) d _ D C ) c . b P o U Z Y ` ~ ",
"  Q % f ! x ^ ! x 5 ^ x Q W  .} H A n A ; [ [ ; [ J v m v #.3 ; v F 4 x f x f ! Q ! ! ! G $ k f 2 # # 4 ` . Z h = o p Y _ c t ` ",
"  4 Q n m g g g x ! V % z F n $ ^ J Q ^ f ^ ^ f ^ f ^ z G ] J ! W z # ` 5 ! x R f f V ~  . .4 Q x 5 Q ~ M < @ 1 # @ @ - c c ` Q ",
"  g F C Q V V ] E , f 5 V g [ G J g 5 F % 5 5 5 S ^ 5 x A m V % t v V x 5 $ V % $ V  .m E O.3 l z V ~ t * @ B @ q + B c R ` F W ",
"  ~ ~ ~ ~ ~ ~ t ) ! ~ ~ ~ ~ ~ G z ~ ~ g $ ~ ~ g M Q % A z ~ ~ % 5 Z , m ~ ~ J % $ ~ D F E S z V G J G . @ @ @ @ - c ) ) $ ~ % W ",
"  z z ~ ~ A z ~ ~ ~ f $ ~ z ~ G , z z z z ~ ~ ~ f ~ ~ A z ~ , J % Q , : A f n J J ~ A J E > O.R ` % % V c ' Z ) T 4 m } H H m n ",
"  W H m m J ~ m , , J m , [ A A n W n W A ; , J m [ J m J ~ [ ; ^ f x O.y n 5 ^ v ; , J E %.X.J Q V ~ ~ ~ G $ x $ l l E } H H W ",
"5.]  .} k } n k  . .} k  .} : S #.} #.} n #. .} #.} n #.} n J ] } n E 6.;.>.#.#.k l : k %.X.;...: k ] ] , 7.8.n S %.: : : : : F ",
"9.z Q ^ ^ ~ } k ; [ W F ^ ` f ^ ` f ^ ^ ^ ~ A W ] k g C C C C C C C 5 x x x x C 5 x x x x x x x x x x x x 0.q.x x x x x x x x D ",
"w.* p p h # f & & D B N K X I 7 P I p p h c 5 $ G , d 1 X X + 1 X X X X U @ @ 1 X U 1 X X X X X X X X X U 1 X X U @ 1 X X X U _ ",
"e.b O U @ - ^ T c c _ _ < U U + ' h ' - 2 ` F ~ 3 , d = u w 8 w w w K = u s a w 7 u 7 u 7 o u 7 8 w 7 o P u w w 8 8 w s 8 s U _ ",
"e.O + X U - ^ $ V g x M & & ` x T ` T & ` $ V $ x $ d X 8 w 7 P P P = + X P P P P P P P P P P P P P + = P P P P P o P P o 8 O _ ",
"e.* O Y t & - B # 4 ! ` 4 F V z J z m m ~ $ & @ . ! d + a 7 = + @ < ' < d . N * @ < @ < @ < * @ @ < * d . B N * * = h + X o b - ",
"r.Z N C _ . + 1 h N d Z d ) x F Q W A , 4 D b q I 4 d = 8 7 + @ N _ Y Z T t < - < d h - < - ' Z h - 2 z 4 ; c . . Y . = U P 1 - ",
"<.x c d b p L w j s I p U @ @ Z x , Q 2 ' h a j s g d K u 7 + Y Y Y Y Y < K P * d h Y _ . Y h Z h R $ ^ 2 d h K p N K P I p U _ ",
"o.2 h U O b I 1 1 K b Y < @ N ) Q ` D d h I 1 P K 4 d I u 7 + - ' h d ' Z h d ' _ < - c Y h @ @ @ D ) 1 8 = U O b 7 K P o 1 U _ ",
"e.d M # N M N M N . - c - - # ! [ $ . @ 1 b @ + M F d = 8 7 = @ - < - N ' t R C C 2 Z < @ @ ' t * < 1 K 6 + X U @ + X O + + X B ",
"<.f 5 5 ` 5 ` 5 ` ` 5 5 5 5 5 $ 3 S f ` ` ` ` ` 5 $ d = o O @ B ! V T < - c c c * _ c < @ @ X # ` I + @ @ @ @ = U @ @ = o U @ - ",
"<.A v v v v v v v v v v W [ v v v v v v v v v A n z d X O @ @ B p 5 ^ 4 Z - < B _ < B c * @ X a M C ` ` ` ` F . h X P U P P P B ",
"<.- K p X I p p X I b < D < p p X I p X I p p ' ; z ' h I h * * ' p X s + . < @ @ @ @ . c d d N @ . B B d ' # ! B ' h O P b @ ) ",
"<.- j i { u j w *./ b D d K u L i i a ( 6 7 / d ; z T d h - c ' ) d h - < @ @ N ' B Y Z M ` f # d Z Z Z = p Y C F ~ ) N p < ' C ",
"<.- j j s I K X P + 2 ` h p = I p q 1 q X Z * - ; z T c < - c < < Z h Z h _ ) t ` d Y Y M ` 4 x # 5 ! M * < d T z [ z Q R ` 5 5 ",
"<.- j 1 b U 2 Z @ d 5 M * = t < U O 1 P K T $ ! k , T c B t ) < p d < @ . & < Y d + 1 1 < d & ' & % z ^ ~ J W G k E E : G $ Q , ",
"$.R . < @ 5 K P + % t N @ = q O 1 + = b X h ` ] 4.v x & c ) c < @ < B - K 1 P + @ @ U = P = @ @ < * Z ` ~ z m m m m l O.4.H G H ",
"&.> Q M * j q + B C & * @ @ @ = + = o o o + @ # 5 $ ~ T c C & C 5 5 N @ @ @ @ @ @ @ @ @ @ @ = o + = + @ - c C 5 5 5 5 $ l X.S ..",
"$.n ` < 1 b I - ^ D * @ * B < < @ R g $ U o + < } k ] [ J x ! & * @ @ < @ < < < < - c N - N < @ @ X O j O + @ + + ' c R F l X.;.",
"<.t 7 P h p . $ ^ R B . t h U d < = L _ * I + - ] %.X.> , # ) < . Z N _ Z . _ B ' _ c B _ c c Z N h I 1 U I U I q K . c ` #.4.6.",
"<.b X U B _ 5 A ^ x 2 # Z K * h @ B < q O b U - ] X.O., Q R ) d Y _ c D ) d _ d Y _ c d _ c c c c < Z Y h @ Z h o I = Z D V H ..",
"<.d Z . D 4 A J - @ + + < h B ' . Y h = + = + - ] X.k A F R ) c c c t D ) c t ) 5 m ; f & Y _ ^ M ' Y _ . . Y d h @ q + Z M g A ",
"<.D t R J J 5 * U Z d d _ B _ Z - B < + U + U - ] X...S W V ` R ) # T c c c ^ G W [ v W D B c Z _ c B c Z % g & < @ O 1 U - M % ",
"t.! Q [ m f + O ' c c c c c N B 4 T < @ X + @ - [ 4.X.> S n J % ` 5 ` ` & c ; , # M 5 . _ c c # ) c c c _ b I B 2 c h U @ h _ ` ",
"t.> S 4 5 b + - C A H n f & c c L b - < @ @ - c ; >.;.X.O.] } m g 5 5 5 & C K U @ B < X U - < R & C 5 & c c c c C ) c c < @ - ` ",
"<.k ^ 5 Q ' # 5 [  .z ) < B 2 T c - c N * - & c ; y l W ] 3 ..k , ^ g 5 5 T 5 T + K B & & & c 2 M R ) 5 & & c c & & ` M N * @ R ",
"<.% 2 T x M R 5 J g D O < - M # & Y - c c c t D v : A g R ^ H ..#.k v ^ x 5 z g 5 5 & # 2 ` & T ` D T ^ t ` D T # ` 5 2 ) c ' 4 "
};
