/* XPM */
static char * brickwall1_xpm[] = {
"65 64 23 1",
" 	c #5C4020",
".	c #D08050",
"+	c #BC7848",
"@	c #DC8854",
"#	c #FCA470",
"$	c #F0945C",
"%	c #905C34",
"&	c #6C4824",
"*	c #543C1C",
"=	c #A0643C",
"-	c #A86840",
";	c #9C6038",
">	c #885830",
",	c #80502C",
"'	c #B47044",
")	c #C87C4C",
"!	c #483818",
"~	c #744C28",
"{	c #E88C58",
"]	c #FCB080",
"^	c #403018",
"/	c #FC9C60",
"(	c #382C14",
" .++.@#########@@.+++.##$@..@@$%&$$$$#$$@@@.@@$@.+++.@@$#$$$$@.  ",
"*+%%=+$##$@@@.-;>>,,>+@@'-=-').%&@'))))'=%>>='-%,,,>;-')...)';%&*",
"!+='+@##$@))'=%>,,,,=@#@'--'+))% .='))'=>,,>=-;>,,,%=-'))))'=;=,!",
"!@@@@$@@)+'-;%>,,,,>+$$.'--'')'~*+%='-;>,~,%==;%,,,;-'''++'==-);!",
"*##$@@)'-;%%>,,>>,>'@#{.+'''''= !+%=-;>,~,%====;>,>='))'''-=')@-*",
"&]$@))'=%>>>,,>%%%=.$$@.)))'-;,*^+;==%,,,=''==-=%>%-))))'''+@$@% ",
"&#@)'-;%>>,,,>%==-.@{@@..)'-%,&*^+;==%,>-))'=--=%>;-))))'')@$@+& ",
"&#)';%>>>,,,>%='-+@$@@..))=>~&&*!+;-=;%=+)+-=-=;%%;-'))'+)@$@+;& ",
"&$'=%>>>,,,,%=')).$$.)))+->~&&~*!+;'''''''-=;;;;%%%='''))@#$)-%& ",
"&@=%>>>>,,,>=').@##@)''-=%,&&&~*!+-).)'-=;%%%%%%%>%-'-')@$#@'=%& ",
" .%>,,,,,,>;')@$##$)'-=%,~&&&&~*!.+))'=%>,>>%%%%>>=''-'..@@+=;%& ",
"*+,,,,,,,%=').{/#$)'=;>,~& &&~~ *@''-%>,,>%;=;%>>%-'''))).@';;;~*",
"!+,~,,,>%-').@$/$)'=%>,& * &~,>& @-;%>,>%=-'-;>,>='))).)-+.+=;;&!",
"!+~~,>;=')@{@{#$.-%>>,~ **&~,;'% @;%>>%;-'''=%>>;'))...)-+.'=;;~!",
"!+~,%-')@$$${$$.=%>,,,&** &,=).% .%>>%='))'=%>>;'))...)'+..-=;;~!",
"!+>;-).@$${@$#@-%>,,,~&* &,%'..>*+>>%='))';>>%=')...@.+-+@+=;;=~!",
"*.=-')@{@)))$$.;>>,,~&  &,>-).'&!+>%=')))-%>%=).@..@@)-=+.-;;=-&*",
" @''')@.'==)$@'%>,,~&* &,>=+)'= !+%=')))'=%;-)@@@.)))-;'+';==-=& ",
" $)'').);>-@$.=%>,~&**&,%-')';, !+;')))''-'+.@@@)'-=;%=+-;=''=%  ",
" $)''))=>=@#@';>,~& * &>'))';,, !.-)))''')).@@)'-;>,,=+-%;')->,  ",
"&#))))+''@#$+;>,~&   &,=))';,,, *@)))''')))..+=%>,,,='=%%=+'%,,  ",
"&#@@@$@.@$$)=>,~&&&&&,%')';>,>%& $))''+))))))=>,,,,='=>>%-'=,~~  ",
"&#@/##@+').'%,~~&&&&~>=))=>,>%-,&@--')..)'+)'%,,%='+=,,>%-->&&,  ",
" $$##@'%=));,~~~~&~,,%-'=>,>%='> .;-)@@.+'))->,%+..+%,,>;-;~ &,& ",
" ##@+%,>-)'%,,,~~~,>;==;>,>%;-',*+;+{$@)'')+-=='.'=%,,,%=-%&&,;, ",
"&#$',~~%')->,,,~~~>='-;>>%;=-''&*+-.$@)'-')).@.+=>,~,,>;-=,&~%'% ",
"~#+>&&,;))=>,,~~~,-))-;%=--''-=&!.+@@)--')@@@.';>,,~,,>;'=,,%')%&",
"~#%~&,>-)+;>,,,,>=+)'=='')))'-% *@.@)-='.@@+'=>,,,,,,,>=''=='))~&",
" .,~,>=')'%,,,>;-''-;=''))))';>&*$@@)+++++';>,,,,,,,>>>=).))))-  ",
"*+,,%;-))->,>%-).)-%>;-'--')-%>& #{$$@+'--;>,,,,,,%===;'.@)).)= *",
"*+%;=='));>%=')@@)=>,%;;;-''=>>&&#$$@'=;==%>,,,,,%-''''+).)..); *",
"^&&&&&,%,&&~%%%%%,&     &~>,& &&*+->&  &~&      &~,,&&~%%%%;%,&!!",
"(***** & * &&    *!!!!!!** ** &*!,&*!!****!!!!******!!*&&&&&&*!(^",
"*@@@..@##$$@@@@@.++++++++.@@@##%&##.+.@@.++++.@@.+++++@$$$##$.+ *",
"*@'';;'@@)'=;==;%,,~~,>='+..@@.%&#+;=-'=>,,%=''=,~&,%'))'').'%>&*",
"*@''-'.{.'-;;;;%>,~~,%'+.@@.+.)%~#+-''-%,,%')'=>~&,%'))'--))'==&*",
" @'-')@.)-==;;%>,,~,%++'+@@)+).%&#)')'=>,>-))=>,~,;'..)'--'.)'-~ ",
"*@;=+))'----;%>,>%==''-='.@@.))%&#@)+-%>>=''=%,,>=+.@)'--')..'-&*",
"*+>;''=;=--=%%=='..+'=-'.{$@)))%&#)'=;>>;==%>,,%-).@.)'-')..)-=&*",
"*+,%-=%%===;;'@@@@+==-)@{$@))))%&#+;%>>;=;>,,>%-)...)+''+)..'==~*",
"!+,;'=%%;;;-+.@..';>;'.${.+'')),&#'%>%;;%,~,,%=+..))))''''.)';=~!",
"!+>''=%>%;+@@@))'-;>%'.{.)''')'~ #+;;==%,~,,%=')..))))'=='))-;=,!",
"!+;+';>>;+@#@)))'-;>%-)@.)')))'~&#.''';,,,>%;='.@.)))'=%%-)+=;->!",
"!+-)';%;+@$@)))'-;%%=-).@.)))))%&#.)'-%>%;;;%;'.@.)'-;%>%')';%-%!",
"!@))';;+@@@)''-=%%;-'-'.@@.)).@-,#'=>,,%=-=%%;'..)'=%>,>=''=%;';!",
"*$))''+@@))'=;;%>>=)'-'@{@...{$-&@>~&&,;--;%>;'..'=%>,>;')'=;-.;*",
"&#.))@@@)'-;%%%%%;')''){{@.)@$@>*+&**&,=-=%>>;+.)-;>>>%-)'-=-+@% ",
"&#.@$#@)-=%>%;==-'))')@${.)+..' !+ **&%=-;%>%-).)=;%%;-))'-'..+& ",
"&#@$##@'=%>%=-'')))').@@)'-++=, !+& &,%;;%>%='..)-===-')+-').'%& ",
"&#@@@@)'=%;=-'')))'').)++''+=>> !+&&~,>>>>%=')@@)''---+)))..->>& ",
"&#@))))'-==---')))').@).@.+=%;=&*+,~,,>,,>;').@@.'--=-.$#$.'>,%& ",
"~#)'))))'-===='..).@$$@..';;='',*+,,,,,,,%-)).@.)'=;;+@##@'%,>>&&",
"&#'')))'-==;;='@@@$#$@'=;%%-')),*+~,,,,,>=')...)'=;;'.@${);,,>>  ",
"&@')))'=;;;==-){{$#@+=>,>;='))'&!+~,,,,>;-))..)'-;=+.+'+)';>>>>  ",
" @''''-=;=-'')@$$$@'>>>%;=-)))-&!+~,,>%;-')..)'---+.'%%='''=%>,  ",
" @==-''''+).@@@@@+=>,%;=--'))'= !+~,>;-'))..))''+..'%,>;=')'=>,* ",
" .;='))..@{$@.@@+;>>%;--'')))-; !+~,;')@@@..)))+..'%,>%;=-+)->,* ",
"*+;'.@...@$@++@@';;;=''''')))-% !+,%-){$$@...)+..'>,,%;===''=,~**",
"!+-){@)))@.'='.+''--')''--))'=> !+>=+@$/$@..)'++->,,>;=-=;-';,~ !",
"!+'.@)+'))';=+'-))))))'=%=''-%> !+;-){$$@@.))++=>,,>%=-=;%=';>>~!",
"*.).))'))';,=.'').)))'=%>;--;>,*^+;'@$$@.)))..'>,,>%===;>%-+'-'%*",
"*@)))))@.-,,'@.))))'-=%>%=-=;>, ^+;)$${.''))@@=,,,%=-=;>>;'))))%*",
" #))+).@);,%.@)))'-;%>>>;-'-;%%&*.'.{{.'-'')@+>,,>;--;>>;-+)))), ",
"&%%%%%%%,& ,;%>,~&&     &%%%,~,&*%%%%%,~&~,%%&   &&&&& &~>%%%%,& "};
