/* XPM */
static char * brickwall_xpm[] = {
"67 66 30 1",
" 	c #000000",
".	c #646464",
"+	c #383838",
"@	c #545454",
"#	c #484848",
"$	c #202020",
"%	c #EC0000",
"&	c #D40000",
"*	c #A40000",
"=	c #E00000",
"-	c #C80000",
";	c #BC0000",
">	c #B00000",
",	c #880000",
"'	c #640000",
")	c #2C2C2C",
"!	c #7C0000",
"~	c #980000",
"{	c #700000",
"]	c #580000",
"^	c #400000",
"/	c #4C0000",
"(	c #5C5C5C",
"_	c #404040",
":	c #343434",
"<	c #282828",
"[	c #4C4C4C",
"}	c #303030",
"|	c #707070",
"1	c #400040",
" ..................................................................",
" ++++++++++++++++++++++++++++++++++++++++++++++++++++++++++++++++++",
" @+@#####@######@#+#######@@@@@@#########@@@@@@@####+++##@@#####++$",
" +%%&&&&&&&&&*##@%%&&&&&&&&&&&&&&&&&&*#+@%%%%======&&&&&----;;;*#$-",
" #%->>&,*&,-*')#@%;,;,;,;!;~;~;!;!;-*{)#+&*->->>-{-!->-,>*!-~-*!))-",
" #&*!*,*~{*,{')#@&;,,*,{**{~**{~*{*~{])#@&**!'*,{,*!,**,*!,*]*{'))>",
" #&!**{~**{*]^)#@&,;*,*{*,*{*{,!*{~!{])##&{*',*'*{*!*,*'*~!*!*{/))>",
" #-*!,~!*{,*{^)#@;;,*,,~*{,{*,{~!,{*{^)+#;{*!*,'*{{**{*,**!*]*,/))>",
"+#;!**{*~{~{]^)##;-,*{*{*{*{~,{!*{~!{])+#;~*',*!,{,!*,*'*!,*!*{^))!",
" #;*{,]{!]{,{^)+@~~{{/,{{,{/{,{,{/,{{^)+#;{{]{{/,/{],/{/,'/{,{,^))!",
" #!'''^^^^^^^^)+#!'']]]]]]]]]^^^^^^^^^)+#,'''''''''']]]]]]]]]^^^))'",
" ##))))))))$$$)+@#)))))$$$$$))$$$$)))))#@+)))))))))))$$$$$)))))))))",
" @++++####+++++#+#######+++@###++######@+#@@@@(..(@@##_+_@+@###@++$",
" %&&&;;;;;;;;;;;*#@#%%&&&&&&-------;;;;;;;;;;;;;;;;;;*#_@%%&&&&&&>>",
" >,,>~!>!~,>'>,*^+#@%{>-!;',;,,-~*,!,*,*,*!-'-,~;-~-*^+#+%-!>,>,>~{",
" ,*,*!,,'*,',**{^)##&>{*!**,*'*{',*!*!*'**,'*,*{,*{*{^+#@->!*,!*~{,",
" {**,~'*!,,~'*,{^)+#&{*,~,,',,{*,'*,!'!,,*],!*{*{**{{^)_#-!***!*!],",
" *,,*,!!,!*~'*'{^)+#&{**!*',*'{*',*!,!*'*,]*'*{,{*{*{^)+#->!*!*~!,{",
" {*'*{,!~'*',**{^)#@&>]*!*,',],{'*,!]!*',],*',*{,*{*{^$+#>!**]*!,],",
" {>'{/!{~{~{]~{{^)#@>*{,]{~{,'{,]{~{~',{,,]~{{,/{~{,{^$_@>*!{]{~{]~",
" ^////////////^^^+#@*''''''''''''']]]]]]]]]]]]]]]]]]^^$#+*'^'^^'^/]",
" )))$)))$$$)))$$)+#+#+:))))))::++:)))$$$$$)))$$$$)))))+#@#)))))))$$",
"$@@#++#@+@+##++++##@###_+_+_+_###@+@#_+++__##@_++_###@#@+@_+_@###++",
" @%%&&&&&&&;;;;;;;;;;;;;;;;;*#@@%%&&&&&&&&&&;;;;;;;;;;;;;;;;;;;*#+;",
" @%,>;!;!;!>,>,>-,>,>,;>'>-{^+#@%;{&*>,*>,>~>!'*,{,*!,*~,*!,*]*^)+>",
" +%>,*~*!{,**,~,*,'*{*,',*{>^)#(&;~*'*',{~,'*',*'*{*!*,*'*~!*!{^)$>",
" #;'**{,]*'*{*,~*',*{,*,'!*{^)@.&;!*!*'*{~*!*!*,'*{{*~{~,**!*]{^))>",
"$#;>,*/*]{,*,{!*!,'!*'*,'*{]^)@(&{*{~,',~{*',',*!,{,!*,*'*!,*!{^))>",
" @;{'*/,!*'*]*'*,',*,'*',!!>^)#@&-{*{*,*,{*'*]{{/*/*]*/**,'/{,{^)+>",
" #-*'{{{]{/{{,',{{,{{'{~{~{{^)+@-*{~{,]{{{{',{,/*]{*/{,/*]*/*{{^))>",
" #*~''''''''''''''/////////^^)+@*'''''''''''''']]]]]]]]]]]]^]!]^)),",
" ##+)))))))))))))))))+++))))))###))))))))$$$$$)+++)$$$)))))))))))))",
" @@@@@##+#+++#@..@@@###__++_++_@###@+@#@#_+_+_#@@##_+_###@+@###@+++",
" ;;;;;;;;;;*#+@&&&&&&&&;;;;;;;;;;;;;;;;;*#@@-%&&&&&&&&&;;;;;;;;;;**",
" *>*>~->>-*^+#+&*'*{**'*,**{*,'**'**{*!*^+#@&*!*{**'*!,!*{*,*!*{*,~",
" *!,*~*!*,{^)#@&'*!,*!*~{*,,{,,*,'*{,*'*^+@@&*]*{*,'*,*!,,~{~!~,{,'",
" ,!*~!*!~*{^)#+&'**!~*{*{*,*]*/,,*,{~*!*^+@.&*!*{*,*,**!*{~,*~!*{{'",
" *,!*~*~!,{^+#@&~'*!*!]~,,,{,*'*,',~{,*!^+@.&!**{*'**!!*!*,~~,!{,,{",
"$*,!*!*!~*{^+##&'*!]~*{,,*,*{,/'~'*~{*!*^+#@-*!**{*,,!*!*{~,*!,*{,{",
"<{{,~{{~{{{^+##~'**]*!{*{*'*],'*,'~{~*'!^)#@-*]*{**,*,*!*{~{~!**{]]",
"<^^///////^^)##*''''''''']]]]]]]]]]]]]]^^)##*''''''''''''''']]]]^//",
")))))))))))))#@#)$$$$))+++)$$$$$)))))))))+###))))++#+))$$$)))))))$$",
")@#@+#++##++++##+++#####@@##+++@###@+#+#+##@#@+@#@(.@[##+@#@#@+@++)",
")+%&&&&&&&;;;;;;;;;;;;;;;;;;;;;;*+@+%%&&&&&&&&;;;;;;;;;;;;;;;;;*#$;",
"}@&*,,*'**!~*!*{,*'*!*,*'*'**!{*^+#@%**'*'*]*{*]*,]~,{*,!*!~{,*^)+;",
"}#&*'*,'*,~!*',]*~'*],~,'*!*!*{~^)##&,*','!],]~!*]*'*{,{*,!~*',^))>",
"}#&,'*',{'*'*,!,*'~,,]!*/~],',,{^)+#&,*'',*!]*!]~*]*{{*{*!*{,'*^))>",
"}+&*,*,'*,!~*!*],*'*],*]~*!***{!^)+#&*'*,'*]*{~!!],'*!,~,~!{*,*^)$>",
"}@&*',*'*'*'*'*{*''*],!*!,'~',{*^$+@&*''*'!]*]*]~]*',{*{!*!~,'{^)+>",
"}+-*'*',{,~!*,,,*~',!]'*/*{~!*{*^$+@-{*','*]!*!]~{,'*{*{*!~{*'*^)$>",
"}@*'''''''''////////////////////^)#@*''''''''']]]]]///////////^^)+,",
"}+#))))))))))+++)$$$$)))$$$$))$$))#+#))))))$$$):+:)$))))$$$))))))$)",
"}@+@+@#@####@..@#@+@#@#_+++_#@##+##@+@########[@@@[####+}$$}+##@#+$",
"}&&&&&;;;;;;;;;;;;*#@#%%&&&&&&&&;;;;;;;;;;;;;;;*#+@%&&&&&;;;;;;;;**",
"}!*]**'~'*!-!*'*!*^)##&****'*/*!*'*'*~*'*'*]*{'^+#@&*',*]*{*{*'*{',",
"}*!!*!*'~!'*]!',',^)##&!*{*'{/!~!*,',~'!,{,]*'*^:#@&'*]*{*{,*{*,/,'",
"}*!]!*'~'!*!]*,'~!^)#_&!!{*'!!*]*/**'*'*',],,'{^)#@&'*{{**,{,{'{,,'",
"+!~]~''*'*!*]!{'*'^)#_&*/{*'*/*!~'*',!'*'*,]{~'^)#@&*']*,{{*{*'{*'!",
"#'*!*'*',*'*!],*!,^)#_&/**'*!{,]!/*'*'!!',{],{'^)##&'*,*{*,{{]*{*/,",
"['*!!'~~'~'!]*'*'~^)##&/*{*'!!,/~',/*!'*,'*]*],^)+#&'*]{]*{*{]'*//,",
"@!~]*'','!!*]*'{,!^)#@-*/{*'*/,'*'*{'*'!*',{,',^)+#-'']*]*{*{*'*{'!",
"(////////////////^^)##*^^^^^//////////////////^^$#@*^^/////////////",
".)))))))))))))))))))#@#+::))))))))))))))$$$$$)$$$+##))))))$$$$$))$$",
"|+@+@+++#####@@+####@@@@@###@###@##+###_++_++_#_+_@##+@####_+_###$+",
"|@@@@@@@@@@@@@@@@@@@@@@@@@@@@@@@@@@@@@@@@@@@@@@@@@@@@@@@@@@@@@@@@##",
"1++++++++++++++++++++++++++++++++++++++++++++++++++++++++++++++++++"};
